o 
usemtl missile
v -1.389845371246338 3.4204698415580292 0.0009099245071411133
v -1.389845371246338 3.211467088661628 -0.5078312635421753
v -1.389845371246338 3.6324172838549185 -0.5066113591194153
v -6.477741837501526 3.4204659915581024 0.0009104745071397246
v -5.158530831336975 3.632413448296028 -0.506611916422844
v -5.158530354499817 3.2114643349270398 -0.5078312635421753
v -1.389845371246338 3.4204698415580292 0.0009099245071411133
v -1.389845371246338 3.6324172838549185 -0.5066113591194153
v -1.3898459672927856 3.929211044214206 -0.2080922693014145
v -6.477741837501526 3.4204659915581024 0.0009104745071397246
v -5.158530831336975 3.929207733176189 -0.20809282660484316
v -5.158530831336975 3.632413448296028 -0.506611916422844
v -1.389845371246338 3.4204698415580292 0.0009099245071411133
v -1.3898459672927856 3.929211044214206 -0.2080922693014145
v -1.3898459672927856 3.927991139791446 0.2128573685884476
v -6.477741837501526 3.4204659915581024 0.0009104745071397246
v -5.158530831336975 3.9279883860568576 0.2128573685884476
v -5.158530831336975 3.929207733176189 -0.20809282660484316
v -1.389845371246338 3.4204698415580292 0.0009099245071411133
v -1.3898459672927856 3.927991139791446 0.2128573685884476
v -1.389845371246338 3.629472033582168 0.5096516698598862
v -6.477741837501526 3.4204659915581024 0.0009104745071397246
v -5.158530831336975 3.6294698371510083 0.5096516698598862
v -5.158530831336975 3.9279883860568576 0.2128573685884476
v -1.389845371246338 3.4204698415580292 0.0009099245071411133
v -1.389845371246338 3.629472033582168 0.5096516698598862
v -1.389845371246338 3.208521838388877 0.5084317654371262
v -6.477741837501526 3.4204659915581024 0.0009104745071397246
v -5.158530354499817 3.2085201992611463 0.5084317654371262
v -5.158530831336975 3.6294698371510083 0.5096516698598862
v -1.389845371246338 3.4204698415580292 0.0009099245071411133
v -1.389845371246338 3.208521838388877 0.5084317654371262
v -1.389845371246338 2.91172807802959 0.20991267561912538
v -6.477741837501526 3.4204659915581024 0.0009104745071397246
v -5.158530354499817 2.9117258815984304 0.20991211831569673
v -5.158530354499817 3.2085201992611463 0.5084317654371262
v -1.389845371246338 3.4204698415580292 0.0009099245071411133
v -1.389845371246338 2.91172807802959 0.20991267561912538
v -1.3898448944091797 2.9129479824523496 -0.21103751957416536
v -6.477741837501526 3.4204659915581024 0.0009104745071397246
v -5.158530354499817 2.9129457860211905 -0.21103807687759402
v -5.158530354499817 2.9117258815984304 0.20991211831569673
v -1.3898448944091797 2.9129479824523496 -0.21103751957416536
v -1.389845371246338 3.211467088661628 -0.5078312635421753
v -1.389845371246338 3.4204698415580292 0.0009099245071411133
v -6.477741837501526 3.4204659915581024 0.0009104745071397246
v -5.158530354499817 3.2114643349270398 -0.5078312635421753
v -5.158530354499817 2.9129457860211905 -0.21103807687759402
v -1.389845371246338 3.211467088661628 -0.5078312635421753
v -1.5566893815994263 3.211467088661628 -0.5078312635421753
v -1.5566898584365845 3.6324167429427674 -0.506611916422844
v -1.389845371246338 3.211467088661628 -0.5078312635421753
v -1.5566898584365845 3.6324167429427674 -0.506611916422844
v -1.389845371246338 3.6324172838549185 -0.5066113591194153
v -1.389845371246338 3.6324172838549185 -0.5066113591194153
v -1.5566898584365845 3.6324167429427674 -0.506611916422844
v -1.5566898584365845 3.929211044214206 -0.2080922693014145
v -1.389845371246338 3.6324172838549185 -0.5066113591194153
v -1.5566898584365845 3.929211044214206 -0.2080922693014145
v -1.3898459672927856 3.929211044214206 -0.2080922693014145
v -1.3898459672927856 3.929211044214206 -0.2080922693014145
v -1.5566898584365845 3.929211044214206 -0.2080922693014145
v -1.5566898584365845 3.927991139791446 0.2128573685884476
v -1.3898459672927856 3.929211044214206 -0.2080922693014145
v -1.5566898584365845 3.927991139791446 0.2128573685884476
v -1.3898459672927856 3.927991139791446 0.2128573685884476
v -1.3898459672927856 3.927991139791446 0.2128573685884476
v -1.5566898584365845 3.927991139791446 0.2128573685884476
v -1.5566898584365845 3.629472033582168 0.5096516698598862
v -1.3898459672927856 3.927991139791446 0.2128573685884476
v -1.5566898584365845 3.629472033582168 0.5096516698598862
v -1.389845371246338 3.629472033582168 0.5096516698598862
v -1.389845371246338 3.629472033582168 0.5096516698598862
v -1.5566898584365845 3.629472033582168 0.5096516698598862
v -1.5566893815994263 3.208521838388877 0.5084317654371262
v -1.389845371246338 3.629472033582168 0.5096516698598862
v -1.5566893815994263 3.208521838388877 0.5084317654371262
v -1.389845371246338 3.208521838388877 0.5084317654371262
v -1.389845371246338 3.208521838388877 0.5084317654371262
v -1.5566893815994263 3.208521838388877 0.5084317654371262
v -1.5566893815994263 2.91172807802959 0.20991267561912538
v -1.389845371246338 3.208521838388877 0.5084317654371262
v -1.5566893815994263 2.91172807802959 0.20991267561912538
v -1.389845371246338 2.91172807802959 0.20991267561912538
v -1.389845371246338 2.91172807802959 0.20991267561912538
v -1.5566893815994263 2.91172807802959 0.20991267561912538
v -1.5566893815994263 2.9129479824523496 -0.21103751957416536
v -1.389845371246338 2.91172807802959 0.20991267561912538
v -1.5566893815994263 2.9129479824523496 -0.21103751957416536
v -1.3898448944091797 2.9129479824523496 -0.21103751957416536
v -1.5566893815994263 3.211467088661628 -0.5078312635421753
v -1.389845371246338 3.211467088661628 -0.5078312635421753
v -1.3898448944091797 2.9129479824523496 -0.21103751957416536
v -1.5566893815994263 3.211467088661628 -0.5078312635421753
v -1.3898448944091797 2.9129479824523496 -0.21103751957416536
v -1.5566893815994263 2.9129479824523496 -0.21103751957416536
v -4.824623465538025 3.2114648922304685 -0.5078312635421753
v -5.158530354499817 3.2114643349270398 -0.5078312635421753
v -5.158530831336975 3.632413448296028 -0.506611916422844
v -4.824623465538025 3.2114648922304685 -0.5078312635421753
v -5.158530831336975 3.632413448296028 -0.506611916422844
v -4.824623465538025 3.632413989208179 -0.5066113591194153
v -4.824623942375183 3.9292082904796177 -0.2080922693014145
v -5.158530831336975 3.929207733176189 -0.20809282660484316
v -5.158530831336975 3.9279883860568576 0.2128573685884476
v -4.824623942375183 3.9292082904796177 -0.2080922693014145
v -5.158530831336975 3.9279883860568576 0.2128573685884476
v -4.824623942375183 3.9279883860568576 0.2128573685884476
v -4.824623465538025 3.6294698371510083 0.5096516698598862
v -5.158530831336975 3.6294698371510083 0.5096516698598862
v -5.158530354499817 3.2085201992611463 0.5084317654371262
v -4.824623465538025 3.6294698371510083 0.5096516698598862
v -5.158530354499817 3.2085201992611463 0.5084317654371262
v -4.824623465538025 3.2085201992611463 0.5084317654371262
v -4.824622988700867 2.9117258815984304 0.20991211831569673
v -5.158530354499817 2.9117258815984304 0.20991211831569673
v -5.158530354499817 2.9129457860211905 -0.21103807687759402
v -4.824622988700867 2.9117258815984304 0.20991211831569673
v -5.158530354499817 2.9129457860211905 -0.21103807687759402
v -4.824622988700867 2.9129463433246188 -0.21103807687759402
v -4.824623465538025 3.2114648922304685 -0.5078312635421753
v -4.824622988700867 2.9129463433246188 -0.21103807687759402
v -4.853368401527405 2.956254982850986 -0.3635415375232697
v -4.824623465538025 3.2114648922304685 -0.5078312635421753
v -4.853368401527405 2.956254982850986 -0.3635415375232697
v -4.859722971916199 3.055226957700687 -0.45515392720699316
v -4.824623465538025 3.6294698371510083 0.5096516698598862
v -4.824623942375183 3.9279883860568576 0.2128573685884476
v -4.891451478004456 3.8697653888682897 0.3601693838834763
v -4.824623465538025 3.6294698371510083 0.5096516698598862
v -4.891451478004456 3.8697653888682897 0.3601693838834763
v -4.885096907615662 3.7707934468011435 0.4517823308706284
v -4.824622988700867 2.9129463433246188 -0.21103807687759402
v -5.158530354499817 2.9129457860211905 -0.21103807687759402
v -5.091779351234436 2.970262378356891 -0.35741674005985263
v -4.824622988700867 2.9129463433246188 -0.21103807687759402
v -5.091779351234436 2.970262378356891 -0.35741674005985263
v -4.853368401527405 2.956254982850986 -0.3635415375232697
v -5.158530831336975 3.6294698371510083 0.5096516698598862
v -4.824623465538025 3.6294698371510083 0.5096516698598862
v -4.885096907615662 3.7707934468011435 0.4517823308706284
v -5.158530831336975 3.6294698371510083 0.5096516698598862
v -4.885096907615662 3.7707934468011435 0.4517823308706284
v -5.123507857322693 3.7848008423070487 0.4579076856374741
v -4.824623942375183 3.9279883860568576 0.2128573685884476
v -5.158530831336975 3.9279883860568576 0.2128573685884476
v -5.129861950874329 3.883772784374195 0.36629418134689334
v -4.824623942375183 3.9279883860568576 0.2128573685884476
v -5.129861950874329 3.883772784374195 0.36629418134689334
v -4.891451478004456 3.8697653888682897 0.3601693838834763
v -5.158530354499817 3.2114643349270398 -0.5078312635421753
v -4.824623465538025 3.2114648922304685 -0.5078312635421753
v -4.859722971916199 3.055226957700687 -0.45515392720699316
v -5.158530354499817 3.2114643349270398 -0.5078312635421753
v -4.859722971916199 3.055226957700687 -0.45515392720699316
v -5.098133444786072 3.069234353206592 -0.44902912974357606
v -5.158530354499817 2.9129457860211905 -0.21103807687759402
v -5.158530354499817 3.2114643349270398 -0.5078312635421753
v -5.098133444786072 3.069234353206592 -0.44902912974357606
v -5.158530354499817 2.9129457860211905 -0.21103807687759402
v -5.098133444786072 3.069234353206592 -0.44902912974357606
v -5.091779351234436 2.970262378356891 -0.35741674005985263
v -5.158530831336975 3.9279883860568576 0.2128573685884476
v -5.158530831336975 3.6294698371510083 0.5096516698598862
v -5.123507857322693 3.7848008423070487 0.4579076856374741
v -5.158530831336975 3.9279883860568576 0.2128573685884476
v -5.123507857322693 3.7848008423070487 0.4579076856374741
v -5.129861950874329 3.883772784374195 0.36629418134689334
v -5.129861950874329 3.883772784374195 0.36629418134689334
v -5.123507857322693 3.7848008423070487 0.4579076856374741
v -4.494798421859741 4.039031749866443 0.5921615898609162
v -5.091779351234436 2.970262378356891 -0.35741674005985263
v -5.098133444786072 3.069234353206592 -0.44902912974357606
v -4.481206893920898 2.78832896938129 -0.6138322114944459
v -5.098133444786072 3.069234353206592 -0.44902912974357606
v -4.859722971916199 3.055226957700687 -0.45515392720699316
v -4.481206893920898 2.78832896938129 -0.6138322114944459
v -4.891451478004456 3.8697653888682897 0.3601693838834763
v -5.129861950874329 3.883772784374195 0.36629418134689334
v -4.494798421859741 4.039031749866443 0.5921615898609162
v -5.123507857322693 3.7848008423070487 0.4579076856374741
v -4.885096907615662 3.7707934468011435 0.4517823308706284
v -4.494798421859741 4.039031749866443 0.5921615898609162
v -4.853368401527405 2.956254982850986 -0.3635415375232697
v -5.091779351234436 2.970262378356891 -0.35741674005985263
v -4.481206893920898 2.78832896938129 -0.6138322114944459
v -4.885096907615662 3.7707934468011435 0.4517823308706284
v -4.891451478004456 3.8697653888682897 0.3601693838834763
v -4.494798421859741 4.039031749866443 0.5921615898609162
v -4.859722971916199 3.055226957700687 -0.45515392720699316
v -4.853368401527405 2.956254982850986 -0.3635415375232697
v -4.481206893920898 2.78832896938129 -0.6138322114944459
v -4.824622988700867 2.9117258815984304 0.20991211831569673
v -4.824623465538025 3.2085201992611463 0.5084317654371262
v -4.901513457298279 3.0451416014651826 0.4480703622102738
v -4.824622988700867 2.9117258815984304 0.20991211831569673
v -4.901513457298279 3.0451416014651826 0.4480703622102738
v -4.897384524345398 2.9680134295444063 0.37332866191864017
v -4.824623942375183 3.9292082904796177 -0.2080922693014145
v -4.824623465538025 3.632413989208179 -0.5066113591194153
v -4.898537993431091 3.7944995283107334 -0.44694956839084626
v -4.824623942375183 3.9292082904796177 -0.2080922693014145
v -4.898537993431091 3.7944995283107334 -0.44694956839084626
v -4.902666926383972 3.8716282575349386 -0.3722078680992127
v -5.158530354499817 2.9117258815984304 0.20991211831569673
v -4.824622988700867 2.9117258815984304 0.20991211831569673
v -4.897384524345398 2.9680134295444063 0.37332866191864017
v -5.158530354499817 2.9117258815984304 0.20991211831569673
v -4.897384524345398 2.9680134295444063 0.37332866191864017
v -5.080393433570862 2.9710037886123235 0.37581138312816625
v -4.824623465538025 3.2085201992611463 0.5084317654371262
v -5.158530354499817 3.2085201992611463 0.5084317654371262
v -5.084522366523743 3.048131927750545 0.4505530834197998
v -4.824623465538025 3.2085201992611463 0.5084317654371262
v -5.084522366523743 3.048131927750545 0.4505530834197998
v -4.901513457298279 3.0451416014651826 0.4480703622102738
v -5.158530831336975 3.929207733176189 -0.20809282660484316
v -4.824623942375183 3.9292082904796177 -0.2080922693014145
v -4.902666926383972 3.8716282575349386 -0.3722078680992127
v -5.158530831336975 3.929207733176189 -0.20809282660484316
v -4.902666926383972 3.8716282575349386 -0.3722078680992127
v -5.085675835609436 3.874618583820301 -0.3697251796722412
v -4.824623465538025 3.632413989208179 -0.5066113591194153
v -5.158530831336975 3.632413448296028 -0.506611916422844
v -5.081546902656555 3.7974898873786502 -0.4444663226604462
v -4.824623465538025 3.632413989208179 -0.5066113591194153
v -5.081546902656555 3.7974898873786502 -0.4444663226604462
v -4.898537993431091 3.7944995283107334 -0.44694956839084626
v -5.158530354499817 3.2085201992611463 0.5084317654371262
v -5.158530354499817 2.9117258815984304 0.20991211831569673
v -5.080393433570862 2.9710037886123235 0.37581138312816625
v -5.158530354499817 3.2085201992611463 0.5084317654371262
v -5.080393433570862 2.9710037886123235 0.37581138312816625
v -5.084522366523743 3.048131927750545 0.4505530834197998
v -5.158530831336975 3.632413448296028 -0.506611916422844
v -5.158530831336975 3.929207733176189 -0.20809282660484316
v -5.085675835609436 3.874618583820301 -0.3697251796722412
v -5.158530831336975 3.632413448296028 -0.506611916422844
v -5.085675835609436 3.874618583820301 -0.3697251796722412
v -5.081546902656555 3.7974898873786502 -0.4444663226604462
v -5.081546902656555 3.7974898873786502 -0.4444663226604462
v -5.085675835609436 3.874618583820301 -0.3697251796722412
v -4.465622901916504 3.940233588121372 -0.5842532336711884
v -5.084522366523743 3.048131927750545 0.4505530834197998
v -5.080393433570862 2.9710037886123235 0.37581138312816625
v -4.456456899642944 2.7792539714793736 0.609384298324585
v -4.898537993431091 3.7944995283107334 -0.44694956839084626
v -5.081546902656555 3.7974898873786502 -0.4444663226604462
v -4.465622901916504 3.940233588121372 -0.5842532336711884
v -5.085675835609436 3.874618583820301 -0.3697251796722412
v -4.902666926383972 3.8716282575349386 -0.3722078680992127
v -4.465622901916504 3.940233588121372 -0.5842532336711884
v -4.901513457298279 3.0451416014651826 0.4480703622102738
v -5.084522366523743 3.048131927750545 0.4505530834197998
v -4.456456899642944 2.7792539714793736 0.609384298324585
v -5.080393433570862 2.9710037886123235 0.37581138312816625
v -4.897384524345398 2.9680134295444063 0.37332866191864017
v -4.456456899642944 2.7792539714793736 0.609384298324585
v -4.902666926383972 3.8716282575349386 -0.3722078680992127
v -4.898537993431091 3.7944995283107334 -0.44694956839084626
v -4.465622901916504 3.940233588121372 -0.5842532336711884
v -4.897384524345398 2.9680134295444063 0.37332866191864017
v -4.901513457298279 3.0451416014651826 0.4480703622102738
v -4.456456899642944 2.7792539714793736 0.609384298324585
v -2.5640084110200405 3.2114665477494766 -0.5078312635421753
v -4.824623465538025 3.2114648922304685 -0.5078312635421753
v -4.824623465538025 3.632413989208179 -0.5066113591194153
v -2.5640084110200405 3.2114665477494766 -0.5078312635421753
v -4.824623465538025 3.632413989208179 -0.5066113591194153
v -2.5640089102089405 3.6324161856393387 -0.5066113591194153
v -1.5566898584365845 3.6324167429427674 -0.506611916422844
v -2.5640089102089405 3.6324161856393387 -0.5066113591194153
v -2.5640089102089405 3.9292099296073486 -0.2080922693014145
v -1.5566898584365845 3.6324167429427674 -0.506611916422844
v -2.5640089102089405 3.9292099296073486 -0.2080922693014145
v -1.5566898584365845 3.929211044214206 -0.2080922693014145
v -2.5640089102089405 3.6324161856393387 -0.5066113591194153
v -4.824623465538025 3.632413989208179 -0.5066113591194153
v -4.824623942375183 3.9292082904796177 -0.2080922693014145
v -2.5640089102089405 3.6324161856393387 -0.5066113591194153
v -4.824623942375183 3.9292082904796177 -0.2080922693014145
v -2.5640089102089405 3.9292099296073486 -0.2080922693014145
v -1.5566898584365845 3.929211044214206 -0.2080922693014145
v -2.5640089102089405 3.9292099296073486 -0.2080922693014145
v -2.5640089102089405 3.9279905824880172 0.2128573685884476
v -1.5566898584365845 3.929211044214206 -0.2080922693014145
v -2.5640089102089405 3.9279905824880172 0.2128573685884476
v -1.5566898584365845 3.927991139791446 0.2128573685884476
v -2.5640089102089405 3.9292099296073486 -0.2080922693014145
v -4.824623942375183 3.9292082904796177 -0.2080922693014145
v -4.824623942375183 3.9279883860568576 0.2128573685884476
v -2.5640089102089405 3.9292099296073486 -0.2080922693014145
v -4.824623942375183 3.9279883860568576 0.2128573685884476
v -2.5640089102089405 3.9279905824880172 0.2128573685884476
v -1.5566893815994263 3.208521838388877 0.5084317654371262
v -2.5640084110200405 3.208521297476726 0.5084317654371262
v -2.5640084110200405 2.911727553508716 0.20991267561912538
v -1.5566893815994263 3.208521838388877 0.5084317654371262
v -2.5640084110200405 2.911727553508716 0.20991267561912538
v -1.5566893815994263 2.91172807802959 0.20991267561912538
v -2.5640084110200405 3.208521297476726 0.5084317654371262
v -4.824623465538025 3.2085201992611463 0.5084317654371262
v -4.824622988700867 2.9117258815984304 0.20991211831569673
v -2.5640084110200405 3.208521297476726 0.5084317654371262
v -4.824622988700867 2.9117258815984304 0.20991211831569673
v -2.5640084110200405 2.911727553508716 0.20991267561912538
v -1.5566893815994263 2.91172807802959 0.20991267561912538
v -2.5640084110200405 2.911727553508716 0.20991267561912538
v -2.5640084110200405 2.912947457931476 -0.21103751957416536
v -1.5566893815994263 2.91172807802959 0.20991267561912538
v -2.5640084110200405 2.912947457931476 -0.21103751957416536
v -1.5566893815994263 2.9129479824523496 -0.21103751957416536
v -2.5640084110200405 2.911727553508716 0.20991267561912538
v -4.824622988700867 2.9117258815984304 0.20991211831569673
v -4.824622988700867 2.9129463433246188 -0.21103807687759402
v -2.5640084110200405 2.911727553508716 0.20991267561912538
v -4.824622988700867 2.9129463433246188 -0.21103807687759402
v -2.5640084110200405 2.912947457931476 -0.21103751957416536
v -4.824623465538025 3.2114648922304685 -0.5078312635421753
v -2.5640084110200405 3.2114665477494766 -0.5078312635421753
v -2.5640084110200405 2.912947457931476 -0.21103751957416536
v -4.824623465538025 3.2114648922304685 -0.5078312635421753
v -2.5640084110200405 2.912947457931476 -0.21103751957416536
v -4.824622988700867 2.9129463433246188 -0.21103807687759402
v -2.5640084110200405 3.2114665477494766 -0.5078312635421753
v -1.5566893815994263 3.211467088661628 -0.5078312635421753
v -1.5566893815994263 2.9129479824523496 -0.21103751957416536
v -2.5640084110200405 3.2114665477494766 -0.5078312635421753
v -1.5566893815994263 2.9129479824523496 -0.21103751957416536
v -2.5640084110200405 2.912947457931476 -0.21103751957416536
v -2.5640089102089405 3.6294714926700165 0.5096516698598862
v -4.824623465538025 3.6294698371510083 0.5096516698598862
v -4.824623465538025 3.2085201992611463 0.5084317654371262
v -2.5640089102089405 3.6294714926700165 0.5096516698598862
v -4.824623465538025 3.2085201992611463 0.5084317654371262
v -2.5640084110200405 3.208521297476726 0.5084317654371262
v -1.5566898584365845 3.927991139791446 0.2128573685884476
v -2.5640089102089405 3.9279905824880172 0.2128573685884476
v -2.5640089102089405 3.6294714926700165 0.5096516698598862
v -1.5566898584365845 3.927991139791446 0.2128573685884476
v -2.5640089102089405 3.6294714926700165 0.5096516698598862
v -1.5566898584365845 3.629472033582168 0.5096516698598862
v -2.5640089102089405 3.9279905824880172 0.2128573685884476
v -4.824623942375183 3.9279883860568576 0.2128573685884476
v -4.824623465538025 3.6294698371510083 0.5096516698598862
v -2.5640089102089405 3.9279905824880172 0.2128573685884476
v -4.824623465538025 3.6294698371510083 0.5096516698598862
v -2.5640089102089405 3.6294714926700165 0.5096516698598862
v -2.5640089102089405 3.6294714926700165 0.5096516698598862
v -2.5640084110200405 3.208521297476726 0.5084317654371262
v -2.3584844172000885 3.3304623446385433 0.5778098464012147
v -2.5640089102089405 3.6294714926700165 0.5096516698598862
v -2.3584844172000885 3.3304623446385433 0.5778098464012147
v -2.3584844172000885 3.511585041038232 0.5791969418525696
v -2.5640084110200405 3.2114665477494766 -0.5078312635421753
v -2.5640089102089405 3.6324161856393387 -0.5066113591194153
v -2.3584844172000885 3.5128522424916797 -0.5762556672096253
v -2.5640084110200405 3.2114665477494766 -0.5078312635421753
v -2.3584844172000885 3.5128522424916797 -0.5762556672096253
v -2.3584844172000885 3.331729537896352 -0.5776427626609802
v -2.5640089102089405 3.6324161856393387 -0.5066113591194153
v -1.5566898584365845 3.6324167429427674 -0.506611916422844
v -1.7617084383964539 3.5128527915994696 -0.5762556672096253
v -2.5640089102089405 3.6324161856393387 -0.5066113591194153
v -1.7617084383964539 3.5128527915994696 -0.5762556672096253
v -2.3584844172000885 3.5128522424916797 -0.5762556672096253
v -1.5566893815994263 3.211467088661628 -0.5078312635421753
v -2.5640084110200405 3.2114665477494766 -0.5078312635421753
v -2.3584844172000885 3.331729537896352 -0.5776427626609802
v -1.5566893815994263 3.211467088661628 -0.5078312635421753
v -2.3584844172000885 3.331729537896352 -0.5776427626609802
v -1.7617084383964539 3.331729537896352 -0.5776427626609802
v -1.5566898584365845 3.629472033582168 0.5096516698598862
v -2.5640089102089405 3.6294714926700165 0.5096516698598862
v -2.3584844172000885 3.511585041038232 0.5791969418525696
v -1.5566898584365845 3.629472033582168 0.5096516698598862
v -2.3584844172000885 3.511585041038232 0.5791969418525696
v -1.7617084383964539 3.511585590146022 0.5791969418525696
v -2.5640084110200405 3.208521297476726 0.5084317654371262
v -1.5566893815994263 3.208521838388877 0.5084317654371262
v -1.7617084383964539 3.330462893746333 0.5778098464012147
v -2.5640084110200405 3.208521297476726 0.5084317654371262
v -1.7617084383964539 3.330462893746333 0.5778098464012147
v -2.3584844172000885 3.3304623446385433 0.5778098464012147
v -1.5566893815994263 3.208521838388877 0.5084317654371262
v -1.5566898584365845 3.629472033582168 0.5096516698598862
v -1.7617084383964539 3.511585590146022 0.5791969418525696
v -1.5566893815994263 3.208521838388877 0.5084317654371262
v -1.7617084383964539 3.511585590146022 0.5791969418525696
v -1.7617084383964539 3.330462893746333 0.5778098464012147
v -1.5566898584365845 3.6324167429427674 -0.506611916422844
v -1.5566893815994263 3.211467088661628 -0.5078312635421753
v -1.7617084383964539 3.331729537896352 -0.5776427626609802
v -1.5566898584365845 3.6324167429427674 -0.506611916422844
v -1.7617084383964539 3.331729537896352 -0.5776427626609802
v -1.7617084383964539 3.5128527915994696 -0.5762556672096253
v -1.7617084383964539 3.5128527915994696 -0.5762556672096253
v -1.7617084383964539 3.331729537896352 -0.5776427626609802
v -2.0127208828926086 3.386791692390578 -1.668067240715027
v -1.7617084383964539 3.5128527915994696 -0.5762556672096253
v -2.0127208828926086 3.386791692390578 -1.668067240715027
v -2.0127208828926086 3.451321540861862 -1.6640665888786317
v -1.7617084383964539 3.330462893746333 0.5778098464012147
v -1.7617084383964539 3.511585590146022 0.5791969418525696
v -2.0127208828926086 3.4508699919055275 1.6688855171203614
v -1.7617084383964539 3.330462893746333 0.5778098464012147
v -2.0127208828926086 3.4508699919055275 1.6688855171203614
v -2.0127208828926086 3.386339592277544 1.6648853898048401
v -2.3584844172000885 3.3304623446385433 0.5778098464012147
v -1.7617084383964539 3.330462893746333 0.5778098464012147
v -2.0127208828926086 3.386339592277544 1.6648853898048401
v -2.3584844172000885 3.3304623446385433 0.5778098464012147
v -2.0127208828926086 3.386339592277544 1.6648853898048401
v -2.109507918357849 3.386339592277544 1.6648853898048401
v -1.7617084383964539 3.511585590146022 0.5791969418525696
v -2.3584844172000885 3.511585041038232 0.5791969418525696
v -2.109507918357849 3.4508699919055275 1.668886172771454
v -1.7617084383964539 3.511585590146022 0.5791969418525696
v -2.109507918357849 3.4508699919055275 1.668886172771454
v -2.0127208828926086 3.4508699919055275 1.6688855171203614
v -1.7617084383964539 3.331729537896352 -0.5776427626609802
v -2.3584844172000885 3.331729537896352 -0.5776427626609802
v -2.109507918357849 3.3867911412338785 -1.668066716194153
v -1.7617084383964539 3.331729537896352 -0.5776427626609802
v -2.109507918357849 3.3867911412338785 -1.668066716194153
v -2.0127208828926086 3.386791692390578 -1.668067240715027
v -2.3584844172000885 3.5128522424916797 -0.5762556672096253
v -1.7617084383964539 3.5128527915994696 -0.5762556672096253
v -2.0127208828926086 3.451321540861862 -1.6640665888786317
v -2.3584844172000885 3.5128522424916797 -0.5762556672096253
v -2.0127208828926086 3.451321540861862 -1.6640665888786317
v -2.109507918357849 3.451321540861862 -1.6640665888786317
v -2.3584844172000885 3.331729537896352 -0.5776427626609802
v -2.3584844172000885 3.5128522424916797 -0.5762556672096253
v -2.109507918357849 3.451321540861862 -1.6640665888786317
v -2.3584844172000885 3.331729537896352 -0.5776427626609802
v -2.109507918357849 3.451321540861862 -1.6640665888786317
v -2.109507918357849 3.3867911412338785 -1.668066716194153
v -2.3584844172000885 3.511585041038232 0.5791969418525696
v -2.3584844172000885 3.3304623446385433 0.5778098464012147
v -2.109507918357849 3.386339592277544 1.6648853898048401
v -2.3584844172000885 3.511585041038232 0.5791969418525696
v -2.109507918357849 3.386339592277544 1.6648853898048401
v -2.109507918357849 3.4508699919055275 1.668886172771454
v -2.0127208828926086 3.386791692390578 -1.668067240715027
v -2.109507918357849 3.3867911412338785 -1.668066716194153
v -2.109507918357849 3.451321540861862 -1.6640665888786317
v -2.0127208828926086 3.386791692390578 -1.668067240715027
v -2.109507918357849 3.451321540861862 -1.6640665888786317
v -2.0127208828926086 3.451321540861862 -1.6640665888786317
v -2.0127208828926086 3.4508699919055275 1.6688855171203614
v -2.109507918357849 3.4508699919055275 1.668886172771454
v -2.109507918357849 3.386339592277544 1.6648853898048401
v -2.0127208828926086 3.4508699919055275 1.6688855171203614
v -2.109507918357849 3.386339592277544 1.6648853898048401
v -2.0127208828926086 3.386339592277544 1.6648853898048401
vn 1 -1.2246467991473535e-16 0
vn 1 -1.2246467991473535e-16 0
vn 1 -1.2246467991473535e-16 0
vn -0.35943828315452886 0.0027026425576301893 -0.9331649459372819
vn -0.35943828315452886 0.0027026425576301893 -0.9331649459372819
vn -0.35943828315452886 0.0027026425576301893 -0.9331649459372819
vn 0.9999999999991735 0.0000011863545005745334 4.954369552991629e-7
vn 0.9999999999991735 0.0000011863545005745334 4.954369552991629e-7
vn 0.9999999999991735 0.0000011863545005745334 4.954369552991629e-7
vn -0.3594384202377184 0.661758995872705 -0.6579354477747513
vn -0.3594384202377184 0.661758995872705 -0.6579354477747513
vn -0.3594384202377184 0.661758995872705 -0.6579354477747513
vn 0.9999999999995159 9.839894489904653e-7 2.851573320905205e-9
vn 0.9999999999995159 9.839894489904653e-7 2.851573320905205e-9
vn 0.9999999999995159 9.839894489904653e-7 2.851573320905205e-9
vn -0.35943833073903725 0.933164926392725 0.0027030623363956956
vn -0.35943833073903725 0.933164926392725 0.0027030623363956956
vn -0.35943833073903725 0.933164926392725 0.0027030623363956956
vn 0.9999999999991735 0.0000011892057664645892 -4.88551667000065e-7
vn 0.9999999999991735 0.0000011892057664645892 -4.88551667000065e-7
vn 0.9999999999991735 0.0000011892057664645892 -4.88551667000065e-7
vn -0.3594382942094219 0.6579361026661038 0.6617584132176627
vn -0.3594382942094219 0.6579361026661038 0.6617584132176627
vn -0.3594382942094219 0.6579361026661038 0.6617584132176627
vn 1 -1.2246467991473535e-16 0
vn 1 -1.2246467991473535e-16 0
vn 1 -1.2246467991473535e-16 0
vn -0.3594377617785575 -0.002704712788775323 0.933165140763601
vn -0.3594377617785575 -0.002704712788775323 0.933165140763601
vn -0.3594377617785575 -0.002704712788775323 0.933165140763601
vn 1 -1.2246467991473535e-16 0
vn 1 -1.2246467991473535e-16 0
vn 1 -1.2246467991473535e-16 0
vn -0.35943699549691316 -0.6617600011000623 0.6579352150570734
vn -0.35943699549691316 -0.6617600011000623 0.6579352150570734
vn -0.35943699549691316 -0.6617600011000623 0.6579352150570734
vn 0.9999999999991735 4.885525453668008e-7 0.0000011892047330703475
vn 0.9999999999991735 4.885525453668008e-7 0.0000011892047330703475
vn 0.9999999999991735 4.885525453668008e-7 0.0000011892047330703475
vn -0.359437033946036 -0.9331654223559939 -0.0027042831279314697
vn -0.359437033946036 -0.9331654223559939 -0.0027042831279314697
vn -0.359437033946036 -0.9331654223559939 -0.0027042831279314697
vn 0.9999999999991735 0.0000011892051463545653 -4.885532172751248e-7
vn 0.9999999999991735 0.0000011892051463545653 -4.885532172751248e-7
vn 0.9999999999991735 0.0000011892051463545653 -4.885532172751248e-7
vn -0.3594377003181493 -0.6579350231332718 -0.6617598090883288
vn -0.3594377003181493 -0.6579350231332718 -0.6617598090883288
vn -0.3594377003181493 -0.6579350231332718 -0.6617598090883288
vn 3.5473762005935977e-19 0.0028966524903861423 -0.9999958046933747
vn 3.5473762005935977e-19 0.0028966524903861423 -0.9999958046933747
vn 3.5473762005935977e-19 0.0028966524903861423 -0.9999958046933747
vn 0.0000032869157196592853 0.0028979551668540954 -0.9999958009137074
vn 0.0000032869157196592853 0.0028979551668540954 -0.9999958009137074
vn 0.0000032869157196592853 0.0028979551668540954 -0.9999958009137074
vn -1.3511236704352868e-8 0.7091531681068962 -0.7050544547508028
vn -1.3511236704352868e-8 0.7091531681068962 -0.7050544547508028
vn -1.3511236704352868e-8 0.7091531681068962 -0.7050544547508028
vn 8.684621574273156e-17 0.7091531681068963 -0.705054454750803
vn 8.684621574273156e-17 0.7091531681068963 -0.705054454750803
vn 8.684621574273156e-17 0.7091531681068963 -0.705054454750803
vn 1.2246416567423336e-16 0.9999958009076387 0.0028979591249573442
vn 1.2246416567423336e-16 0.9999958009076387 0.0028979591249573442
vn 1.2246416567423336e-16 0.9999958009076387 0.0028979591249573442
vn 1.2246416567423336e-16 0.9999958009076387 0.0028979591249573442
vn 1.2246416567423336e-16 0.9999958009076387 0.0028979591249573442
vn 1.2246416567423336e-16 0.9999958009076387 0.0028979591249573442
vn 8.634434864961396e-17 0.7050551122962985 0.7091525143612296
vn 8.634434864961396e-17 0.7050551122962985 0.7091525143612296
vn 8.634434864961396e-17 0.7050551122962985 0.7091525143612296
vn 8.634434864961396e-17 0.7050551122962985 0.7091525143612296
vn 8.634434864961396e-17 0.7050551122962985 0.7091525143612296
vn 8.634434864961396e-17 0.7050551122962985 0.7091525143612296
vn -3.548971519179572e-19 -0.0028979551668697496 0.9999958009191091
vn -3.548971519179572e-19 -0.0028979551668697496 0.9999958009191091
vn -3.548971519179572e-19 -0.0028979551668697496 0.9999958009191091
vn -3.548971519179572e-19 -0.0028979551668697496 0.9999958009191091
vn -3.548971519179572e-19 -0.0028979551668697496 0.9999958009191091
vn -3.548971519179572e-19 -0.0028979551668697496 0.9999958009191091
vn -8.684621574273156e-17 -0.7091531681068963 0.705054454750803
vn -8.684621574273156e-17 -0.7091531681068963 0.705054454750803
vn -8.684621574273156e-17 -0.7091531681068963 0.705054454750803
vn -8.684621574273156e-17 -0.7091531681068963 0.705054454750803
vn -8.684621574273156e-17 -0.7091531681068963 0.705054454750803
vn -8.684621574273156e-17 -0.7091531681068963 0.705054454750803
vn -1.2246416567563808e-16 -0.9999958009191091 -0.0028979551668697496
vn -1.2246416567563808e-16 -0.9999958009191091 -0.0028979551668697496
vn -1.2246416567563808e-16 -0.9999958009191091 -0.0028979551668697496
vn -1.2246416567563808e-16 -0.9999958009191091 -0.0028979551668697496
vn -1.2246416567563808e-16 -0.9999958009191091 -0.0028979551668697496
vn -1.2246416567563808e-16 -0.9999958009191091 -0.0028979551668697496
vn -8.634426812351532e-17 -0.705054454750803 -0.7091531681068963
vn -8.634426812351532e-17 -0.705054454750803 -0.7091531681068963
vn -8.634426812351532e-17 -0.705054454750803 -0.7091531681068963
vn -8.634426812351532e-17 -0.705054454750803 -0.7091531681068963
vn -8.634426812351532e-17 -0.705054454750803 -0.7091531681068963
vn -8.634426812351532e-17 -0.705054454750803 -0.7091531681068963
vn -4.771271534386068e-9 0.0028966562156450973 -0.9999958046825838
vn -4.771271534386068e-9 0.0028966562156450973 -0.9999958046825838
vn -4.771271534386068e-9 0.0028966562156450973 -0.9999958046825838
vn 0.000001642382382343842 0.0028979628502123493 -0.9999958008954944
vn 0.000001642382382343842 0.0028979628502123493 -0.9999958008954944
vn 0.000001642382382343842 0.0028979628502123493 -0.9999958008954944
vn -0.000001651929501932184 0.999995804702801 0.002896648765123234
vn -0.000001651929501932184 0.999995804702801 0.002896648765123234
vn -0.000001651929501932184 0.999995804702801 0.002896648765123234
vn 1.2246416567423336e-16 0.9999958009076387 0.0028979591249573442
vn 1.2246416567423336e-16 0.9999958009076387 0.0028979591249573442
vn 1.2246416567423336e-16 0.9999958009076387 0.0028979591249573442
vn -3.548976366438877e-19 -0.0028979591249573442 0.9999958009076387
vn -3.548976366438877e-19 -0.0028979591249573442 0.9999958009076387
vn -3.548976366438877e-19 -0.0028979591249573442 0.9999958009076387
vn -3.548976366438877e-19 -0.0028979591249573442 0.9999958009076387
vn -3.548976366438877e-19 -0.0028979591249573442 0.9999958009076387
vn -3.548976366438877e-19 -0.0028979591249573442 0.9999958009076387
vn -1.2246416567563808e-16 -0.9999958009191091 -0.0028979551668697496
vn -1.2246416567563808e-16 -0.9999958009191091 -0.0028979551668697496
vn -1.2246416567563808e-16 -0.9999958009191091 -0.0028979551668697496
vn 0.0000016471558433244717 -0.9999957971298137 -0.0028992619742309695
vn 0.0000016471558433244717 -0.9999957971298137 -0.0028992619742309695
vn 0.0000016471558433244717 -0.9999957971298137 -0.0028992619742309695
vn 0.9377501280529673 -0.2448721481032541 -0.24629723591616198
vn 0.9377501280529673 -0.2448721481032541 -0.24629723591616198
vn 0.9377501280529673 -0.2448721481032541 -0.24629723591616198
vn 0.8472266048287647 -0.33054721502730167 -0.4158673090157713
vn 0.8472266048287647 -0.33054721502730167 -0.4158673090157713
vn 0.8472266048287647 -0.33054721502730167 -0.4158673090157713
vn 0.6883489841931174 0.511433733629215 0.5144037442188624
vn 0.6883489841931174 0.511433733629215 0.5144037442188624
vn 0.6883489841931174 0.511433733629215 0.5144037442188624
vn 0.7053837085511 0.5053644669837322 0.49703176882463473
vn 0.7053837085511 0.5053644669837322 0.49703176882463473
vn 0.7053837085511 0.5053644669837322 0.49703176882463473
vn 0.0000015337736839483234 -0.931160972621408 -0.3646083420115362
vn 0.0000015337736839483234 -0.931160972621408 -0.3646083420115362
vn 0.0000015337736839483234 -0.931160972621408 -0.3646083420115362
vn -0.06330533701791313 -0.9631049517686155 -0.2615746283258776
vn -0.06330533701791313 -0.9631049517686155 -0.2615746283258776
vn -0.06330533701791313 -0.9631049517686155 -0.2615746283258776
vn 4.640703426010702e-17 0.3789421920868728 0.9254203450629316
vn 4.640703426010702e-17 0.3789421920868728 0.9254203450629316
vn 4.640703426010702e-17 0.3789421920868728 0.9254203450629316
vn 0.04247104594585334 0.307128559711763 0.9507198630856742
vn 0.04247104594585334 0.307128559711763 0.9507198630856742
vn 0.04247104594585334 0.307128559711763 0.9507198630856742
vn 1.1767614334112706e-16 0.9608986315324367 0.27690037905190823
vn 1.1767614334112706e-16 0.9608986315324367 0.27690037905190823
vn 1.1767614334112706e-16 0.9608986315324367 0.27690037905190823
vn 0.06399047285587611 0.9178277354135782 0.3917875285014365
vn 0.06399047285587611 0.9178277354135782 0.3917875285014365
vn 0.06399047285587611 0.9178277354135782 0.3917875285014365
vn 5.262534581877505e-7 -0.3194903746407786 -0.9475895211069073
vn 5.262534581877505e-7 -0.3194903746407786 -0.9475895211069073
vn 5.262534581877505e-7 -0.3194903746407786 -0.9475895211069073
vn -0.04694950169395044 -0.39860557806241864 -0.9159199405123871
vn -0.04694950169395044 -0.39860557806241864 -0.9159199405123871
vn -0.04694950169395044 -0.39860557806241864 -0.9159199405123871
vn -0.6962277561660569 -0.506102861280753 -0.5090449934410636
vn -0.6962277561660569 -0.506102861280753 -0.5090449934410636
vn -0.6962277561660569 -0.506102861280753 -0.5090449934410636
vn -0.6817762778203712 -0.5200390459132557 -0.5145293944246827
vn -0.6817762778203712 -0.5200390459132557 -0.5145293944246827
vn -0.6817762778203712 -0.5200390459132557 -0.5145293944246827
vn -0.9011939311986744 0.3055825092672046 0.3073578181869425
vn -0.9011939311986744 0.3055825092672046 0.3073578181869425
vn -0.9011939311986744 0.3055825092672046 0.3073578181869425
vn -0.9646169838637083 0.14306835651441144 0.2214622311048715
vn -0.9646169838637083 0.14306835651441144 0.2214622311048715
vn -0.9646169838637083 0.14306835651441144 0.2214622311048715
vn -0.3936675975630802 0.6107097577165007 0.6870658006761549
vn -0.3936675975630802 0.6107097577165007 0.6870658006761549
vn -0.3936675975630802 0.6107097577165007 0.6870658006761549
vn -0.45352005779378646 -0.6209256985575609 -0.6393518859356917
vn -0.45352005779378646 -0.6209256985575609 -0.6393518859356917
vn -0.45352005779378646 -0.6209256985575609 -0.6393518859356917
vn 0.008609732440399955 0.5200075425473343 -0.854118275299848
vn 0.008609732440399955 0.5200075425473343 -0.854118275299848
vn 0.008609732440399955 0.5200075425473343 -0.854118275299848
vn 0.029984779248046163 0.7823655576424943 -0.6220972972358865
vn 0.029984779248046163 0.7823655576424943 -0.6220972972358865
vn 0.029984779248046163 0.7823655576424943 -0.6220972972358865
vn -0.004137734594875795 -0.45894229172041995 0.8884564435147236
vn -0.004137734594875795 -0.45894229172041995 0.8884564435147236
vn -0.004137734594875795 -0.45894229172041995 0.8884564435147236
vn -0.03687922628034126 -0.8543588192830706 0.5183733505709961
vn -0.03687922628034126 -0.8543588192830706 0.5183733505709961
vn -0.03687922628034126 -0.8543588192830706 0.5183733505709961
vn 0.5851288094557995 -0.5303185447879248 -0.6135034779028206
vn 0.5851288094557995 -0.5303185447879248 -0.6135034779028206
vn 0.5851288094557995 -0.5303185447879248 -0.6135034779028206
vn 0.6222045996890357 0.5529309802753906 0.5541919948695602
vn 0.6222045996890357 0.5529309802753906 0.5541919948695602
vn 0.6222045996890357 0.5529309802753906 0.5541919948695602
vn 0.6900185139575876 -0.5132785964759409 0.5103131712933253
vn 0.6900185139575876 -0.5132785964759409 0.5103131712933253
vn 0.6900185139575876 -0.5132785964759409 0.5103131712933253
vn 0.7597900431637219 -0.43102521425742335 0.48676108614351227
vn 0.7597900431637219 -0.43102521425742335 0.48676108614351227
vn 0.7597900431637219 -0.43102521425742335 0.48676108614351227
vn 0.7020998254824246 0.5049728484480153 -0.5020540383144495
vn 0.7020998254824246 0.5049728484480153 -0.5020540383144495
vn 0.7020998254824246 0.5049728484480153 -0.5020540383144495
vn 0.6791146927737175 0.5292439995175985 -0.5086295538340999
vn 0.6791146927737175 0.5292439995175985 -0.5086295538340999
vn 0.6791146927737175 0.5292439995175985 -0.5086295538340999
vn -1.157885466281796e-16 -0.9454852346717117 0.325664967440126
vn -1.157885466281796e-16 -0.9454852346717117 0.325664967440126
vn -1.157885466281796e-16 -0.9454852346717117 0.325664967440126
vn -0.010734738158144252 -0.94002429793022 0.34093853507263333
vn -0.010734738158144252 -0.94002429793022 0.34093853507263333
vn -0.010734738158144252 -0.94002429793022 0.34093853507263333
vn -4.156949382935926e-17 -0.339440676759222 0.9406274644944413
vn -4.156949382935926e-17 -0.339440676759222 0.9406274644944413
vn -4.156949382935926e-17 -0.339440676759222 0.9406274644944413
vn 0.007000401801374567 -0.3494497170398893 0.936928967230366
vn 0.007000401801374567 -0.3494497170398893 0.936928967230366
vn 0.007000401801374567 -0.3494497170398893 0.936928967230366
vn -0.0000010089596371492354 0.9436079833189326 -0.33106490876527367
vn -0.0000010089596371492354 0.9436079833189326 -0.33106490876527367
vn -0.0000010089596371492354 0.9436079833189326 -0.33106490876527367
vn 0.011225829493726922 0.9488877403037815 -0.3154140723768694
vn 0.011225829493726922 0.9488877403037815 -0.3154140723768694
vn 0.011225829493726922 0.9488877403037815 -0.3154140723768694
vn 9.612057457908874e-7 0.35232525868388453 -0.935877615980001
vn 9.612057457908874e-7 0.35232525868388453 -0.935877615980001
vn 9.612057457908874e-7 0.35232525868388453 -0.935877615980001
vn -0.00715050713558854 0.3425482738781676 -0.9394730173404618
vn -0.00715050713558854 0.3425482738781676 -0.9394730173404618
vn -0.00715050713558854 0.3425482738781676 -0.9394730173404618
vn -0.692144186273183 -0.5118378546513355 0.5088795888559018
vn -0.692144186273183 -0.5118378546513355 0.5088795888559018
vn -0.692144186273183 -0.5118378546513355 0.5088795888559018
vn -0.7171006503540192 -0.5044460573442812 0.48093745174570574
vn -0.7171006503540192 -0.5044460573442812 0.48093745174570574
vn -0.7171006503540192 -0.5044460573442812 0.48093745174570574
vn -0.718436758251139 0.4932810059177516 -0.49043090603505585
vn -0.718436758251139 0.4932810059177516 -0.49043090603505585
vn -0.718436758251139 0.4932810059177516 -0.49043090603505585
vn -0.644914245608544 0.5137633760082216 -0.5658028007033874
vn -0.644914245608544 0.5137633760082216 -0.5658028007033874
vn -0.644914245608544 0.5137633760082216 -0.5658028007033874
vn -0.30833968039628923 0.6534331641595104 -0.6913405394374068
vn -0.30833968039628923 0.6534331641595104 -0.6913405394374068
vn -0.30833968039628923 0.6534331641595104 -0.6913405394374068
vn -0.4341089455322469 -0.6387947037641802 0.6352092173856688
vn -0.4341089455322469 -0.6387947037641802 0.6352092173856688
vn -0.4341089455322469 -0.6387947037641802 0.6352092173856688
vn -0.020937683408296187 -0.6519381950969355 -0.757982983441742
vn -0.020937683408296187 -0.6519381950969355 -0.757982983441742
vn -0.020937683408296187 -0.6519381950969355 -0.757982983441742
vn 0.020012482906562976 0.9384369962035252 0.3448702722538135
vn 0.020012482906562976 0.9384369962035252 0.3448702722538135
vn 0.020012482906562976 0.9384369962035252 0.3448702722538135
vn 0.02026233282123651 0.5431675496048081 0.8393798013563049
vn 0.02026233282123651 0.5431675496048081 0.8393798013563049
vn 0.02026233282123651 0.5431675496048081 0.8393798013563049
vn -0.02120683025359903 -0.7997775441468181 -0.5999217867598071
vn -0.02120683025359903 -0.7997775441468181 -0.5999217867598071
vn -0.02120683025359903 -0.7997775441468181 -0.5999217867598071
vn 0.41909185687803113 -0.6201746352870932 0.6631330464130445
vn 0.41909185687803113 -0.6201746352870932 0.6631330464130445
vn 0.41909185687803113 -0.6201746352870932 0.6631330464130445
vn 0.5625575000951386 0.590683199568169 -0.578465571001956
vn 0.5625575000951386 0.590683199568169 -0.578465571001956
vn 0.5625575000951386 0.590683199568169 -0.578465571001956
vn -2.1151936742821577e-9 0.0028979628502162577 -0.999995800896843
vn -2.1151936742821577e-9 0.0028979628502162577 -0.999995800896843
vn -2.1151936742821577e-9 0.0028979628502162577 -0.999995800896843
vn -2.8202552201198975e-9 0.0028979591249573442 -0.9999958009076387
vn -2.8202552201198975e-9 0.0028979591249573442 -0.9999958009076387
vn -2.8202552201198975e-9 0.0028979591249573442 -0.9999958009076387
vn -7.721627502887559e-7 0.7091531681066849 -0.7050544547505927
vn -7.721627502887559e-7 0.7091531681066849 -0.7050544547505927
vn -7.721627502887559e-7 0.7091531681066849 -0.7050544547505927
vn -7.744006188230155e-7 0.7091531681066838 -0.7050544547505916
vn -7.744006188230155e-7 0.7091531681066838 -0.7050544547505916
vn -7.744006188230155e-7 0.7091531681066838 -0.7050544547505916
vn -6.901377734616935e-7 0.7091525143610606 -0.7050551122961306
vn -6.901377734616935e-7 0.7091525143610606 -0.7050551122961306
vn -6.901377734616935e-7 0.7091525143610606 -0.7050551122961306
vn -5.176037038504267e-7 0.7091531681068013 -0.7050544547507084
vn -5.176037038504267e-7 0.7091531681068013 -0.7050544547507084
vn -5.176037038504267e-7 0.7091531681068013 -0.7050544547507084
vn -0.0000010920030465707256 0.9999958046927784 0.002896652490384415
vn -0.0000010920030465707256 0.9999958046927784 0.002896652490384415
vn -0.0000010920030465707256 0.9999958046927784 0.002896652490384415
vn -5.460015211573487e-7 0.9999958009074899 0.0028979591249569127
vn -5.460015211573487e-7 0.9999958009074899 0.0028979591249569127
vn -5.460015211573487e-7 0.9999958009074899 0.0028979591249569127
vn -7.298867816496906e-7 0.9999958009073725 0.0028979591249565727
vn -7.298867816496906e-7 0.9999958009073725 0.0028979591249565727
vn -7.298867816496906e-7 0.9999958009073725 0.0028979591249565727
vn -9.731824209429402e-7 0.9999958046929012 0.0028966524903847705
vn -9.731824209429402e-7 0.9999958046929012 0.0028966524903847705
vn -9.731824209429402e-7 0.9999958046929012 0.0028966524903847705
vn 3.8720030936817175e-7 -0.7091531681068433 0.7050544547507501
vn 3.8720030936817175e-7 -0.7091531681068433 0.7050544547507501
vn 3.8720030936817175e-7 -0.7091531681068433 0.7050544547507501
vn 3.8720030936817175e-7 -0.7091531681068433 0.7050544547507501
vn 3.8720030936817175e-7 -0.7091531681068433 0.7050544547507501
vn 3.8720030936817175e-7 -0.7091531681068433 0.7050544547507501
vn 3.4506913587136147e-7 -0.7091531681068541 0.7050544547507609
vn 3.4506913587136147e-7 -0.7091531681068541 0.7050544547507609
vn 3.4506913587136147e-7 -0.7091531681068541 0.7050544547507609
vn 3.460664223812021e-7 -0.7091531681068538 0.7050544547507607
vn 3.460664223812021e-7 -0.7091531681068538 0.7050544547507607
vn 3.460664223812021e-7 -0.7091531681068538 0.7050544547507607
vn 5.460015211636116e-7 -0.9999958009189602 -0.0028979551668693176
vn 5.460015211636116e-7 -0.9999958009189602 -0.0028979551668693176
vn 5.460015211636116e-7 -0.9999958009189602 -0.0028979551668693176
vn 5.460015211636116e-7 -0.9999958009189602 -0.0028979551668693176
vn 5.460015211636116e-7 -0.9999958009189602 -0.0028979551668693176
vn 5.460015211636116e-7 -0.9999958009189602 -0.0028979551668693176
vn 7.305923856708825e-7 -0.9999957971309035 -0.0028992619742341293
vn 7.305923856708825e-7 -0.9999957971309035 -0.0028992619742341293
vn 7.305923856708825e-7 -0.9999957971309035 -0.0028992619742341293
vn 4.872963653768344e-7 -0.9999958009189904 -0.0028979551668694052
vn 4.872963653768344e-7 -0.9999958009189904 -0.0028979551668694052
vn 4.872963653768344e-7 -0.9999958009189904 -0.0028979551668694052
vn 5.146121256963278e-7 -0.7050544547507096 -0.7091531681068025
vn 5.146121256963278e-7 -0.7050544547507096 -0.7091531681068025
vn 5.146121256963278e-7 -0.7050544547507096 -0.7091531681068025
vn 5.156094122061683e-7 -0.7050544547507093 -0.7091531681068022
vn 5.156094122061683e-7 -0.7050544547507093 -0.7091531681068022
vn 5.156094122061683e-7 -0.7050544547507093 -0.7091531681068022
vn 3.8496240957053257e-7 -0.7050544547507507 -0.7091531681068438
vn 3.8496240957053257e-7 -0.7050544547507507 -0.7091531681068438
vn 3.8496240957053257e-7 -0.7050544547507507 -0.7091531681068438
vn 3.8496240957053257e-7 -0.7050544547507507 -0.7091531681068438
vn 3.8496240957053257e-7 -0.7050544547507507 -0.7091531681068438
vn 3.8496240957053257e-7 -0.7050544547507507 -0.7091531681068438
vn 2.115191476063463e-9 -0.0028979591249573442 0.9999958009076387
vn 2.115191476063463e-9 -0.0028979591249573442 0.9999958009076387
vn 2.115191476063463e-9 -0.0028979591249573442 0.9999958009076387
vn 1.4101254116571453e-9 -0.0028979551668697496 0.9999958009191091
vn 1.4101254116571453e-9 -0.0028979551668697496 0.9999958009191091
vn 1.4101254116571453e-9 -0.0028979551668697496 0.9999958009191091
vn -3.849627857714481e-7 0.7050551122962463 0.7091525143611771
vn -3.849627857714481e-7 0.7050551122962463 0.7091525143611771
vn -3.849627857714481e-7 0.7050551122962463 0.7091525143611771
vn -3.849627857714481e-7 0.7050551122962463 0.7091525143611771
vn -3.849627857714481e-7 0.7050551122962463 0.7091525143611771
vn -3.849627857714481e-7 0.7050551122962463 0.7091525143611771
vn -6.861507551989913e-7 0.7050557698410255 0.7091518606147826
vn -6.861507551989913e-7 0.7050557698410255 0.7091518606147826
vn -6.861507551989913e-7 0.7050557698410255 0.7091518606147826
vn -5.146127210927596e-7 0.7050551122962051 0.7091525143611357
vn -5.146127210927596e-7 0.7050551122962051 0.7091525143611357
vn -5.146127210927596e-7 0.7050551122962051 0.7091525143611357
vn -0.318370531560249 -0.0027475421118975728 0.9479623703746831
vn -0.318370531560249 -0.0027475421118975728 0.9479623703746831
vn -0.318370531560249 -0.0027475421118975728 0.9479623703746831
vn -0.3242440457791496 -0.007244378063757424 0.945945726647802
vn -0.3242440457791496 -0.007244378063757424 0.945945726647802
vn -0.3242440457791496 -0.007244378063757424 0.945945726647802
vn -0.31950149683241225 0.002745685295156441 -0.9475817931630536
vn -0.31950149683241225 0.002745685295156441 -0.9475817931630536
vn -0.31950149683241225 0.002745685295156441 -0.9475817931630536
vn -0.32541534276221923 0.007241297234771789 -0.9455434513068688
vn -0.32541534276221923 0.007241297234771789 -0.9455434513068688
vn -0.32541534276221923 0.007241297234771789 -0.9455434513068688
vn -7.466170931768004e-7 0.5033224747589242 -0.8640986554797981
vn -7.466170931768004e-7 0.5033224747589242 -0.8640986554797981
vn -7.466170931768004e-7 0.5033224747589242 -0.8640986554797981
vn -4.6387278520777043e-7 0.503323905799035 -0.8640978219223728
vn -4.6387278520777043e-7 0.503323905799035 -0.8640978219223728
vn -4.6387278520777043e-7 0.503323905799035 -0.8640978219223728
vn 2.741133928551064e-7 -0.5020356884117047 -0.8648469041170874
vn 2.741133928551064e-7 -0.5020356884117047 -0.8648469041170874
vn 2.741133928551064e-7 -0.5020356884117047 -0.8648469041170874
vn -6.148180666136259e-17 -0.5020370502267969 -0.864846113594538
vn -6.148180666136259e-17 -0.5020370502267969 -0.864846113594538
vn -6.148180666136259e-17 -0.5020370502267969 -0.864846113594538
vn -2.774282025015622e-7 0.508106768492519 0.8612940913602116
vn -2.774282025015622e-7 0.508106768492519 0.8612940913602116
vn -2.774282025015622e-7 0.508106768492519 0.8612940913602116
vn -4.682816136845522e-7 0.5081077107166851 0.8612935355092539
vn -4.682816136845522e-7 0.5081077107166851 0.8612935355092539
vn -4.682816136845522e-7 0.5081077107166851 0.8612935355092539
vn 2.700055974912064e-7 -0.49451232530787975 0.869170616230508
vn 2.700055974912064e-7 -0.49451232530787975 0.869170616230508
vn 2.700055974912064e-7 -0.49451232530787975 0.869170616230508
vn 4.5575272721161046e-7 -0.4945132538247122 0.8691700879525756
vn 4.5575272721161046e-7 -0.4945132538247122 0.8691700879525756
vn 4.5575272721161046e-7 -0.4945132538247122 0.8691700879525756
vn 0.3226487803654685 -0.0027425859034791614 0.9465147873917438
vn 0.3226487803654685 -0.0027425859034791614 0.9465147873917438
vn 0.3226487803654685 -0.0027425859034791614 0.9465147873917438
vn 0.31665476992020014 -0.007264039269872534 0.9485130417765855
vn 0.31665476992020014 -0.007264039269872534 0.9485130417765855
vn 0.31665476992020014 -0.007264039269872534 0.9485130417765855
vn 0.32377665669517547 0.002741004696167147 -0.9461295701290338
vn 0.32377665669517547 0.002741004696167147 -0.9461295701290338
vn 0.32377665669517547 0.002741004696167147 -0.9461295701290338
vn 0.3178363062515798 0.007260990193776981 -0.9481177988255244
vn 0.3178363062515798 0.007260990193776981 -0.9481177988255244
vn 0.3178363062515798 0.007260990193776981 -0.9481177988255244
vn 0.9745307408748446 0.0017173583860396664 -0.22424737628364874
vn 0.9745307408748446 0.0017173583860396664 -0.22424737628364874
vn 0.9745307408748446 0.0017173583860396664 -0.22424737628364874
vn 0.974126391511043 0.013984864169902992 -0.22557082465563563
vn 0.974126391511043 0.013984864169902992 -0.22557082465563563
vn 0.974126391511043 0.013984864169902992 -0.22557082465563563
vn 0.9744995953508919 -0.001718399779489621 0.22438267705673176
vn 0.9744995953508919 -0.001718399779489621 0.22438267705673176
vn 0.9744995953508919 -0.001718399779489621 0.22438267705673176
vn 0.9741087715372005 -0.013987528031750948 0.22564673778684918
vn 0.9741087715372005 -0.013987528031750948 0.22564673778684918
vn 0.9741087715372005 -0.013987528031750948 0.22564673778684918
vn 9.204037863840326e-7 -0.9986815729018272 0.05133338042137201
vn 9.204037863840326e-7 -0.9986815729018272 0.05133338042137201
vn 9.204037863840326e-7 -0.9986815729018272 0.05133338042137201
vn -1.223032173379292e-16 -0.9986815580057977 0.05133367022834597
vn -1.223032173379292e-16 -0.9986815580057977 0.05133367022834597
vn -1.223032173379292e-16 -0.9986815580057977 0.05133367022834597
vn -9.201916097969944e-7 0.9984513581768505 0.05563169379010303
vn -9.201916097969944e-7 0.9984513581768505 0.05563169379010303
vn -9.201916097969944e-7 0.9984513581768505 0.05563169379010303
vn 3.16133850544649e-7 0.9984513362432802 0.055632087448774126
vn 3.16133850544649e-7 0.9984513362432802 0.055632087448774126
vn 3.16133850544649e-7 0.9984513362432802 0.055632087448774126
vn -1.2230884737988278e-16 -0.998727530787154 -0.05043133200495747
vn -1.2230884737988278e-16 -0.998727530787154 -0.05043133200495747
vn -1.2230884737988278e-16 -0.998727530787154 -0.05043133200495747
vn 0.000005388759990152515 -0.9987274439695 -0.05043305099942509
vn 0.000005388759990152515 -0.9987274439695 -0.05043305099942509
vn 0.000005388759990152515 -0.9987274439695 -0.05043305099942509
vn -9.201480184012966e-7 0.9984040813351802 -0.05647380253186483
vn -9.201480184012966e-7 0.9984040813351802 -0.05647380253186483
vn -9.201480184012966e-7 0.9984040813351802 -0.05647380253186483
vn 1.2226923825273147e-16 0.9984040977191144 -0.0564735128859601
vn 1.2226923825273147e-16 0.9984040977191144 -0.0564735128859601
vn 1.2226923825273147e-16 0.9984040977191144 -0.0564735128859601
vn -0.9747709922986733 0.0017093484739232378 -0.2232007856188111
vn -0.9747709922986733 0.0017093484739232378 -0.2232007856188111
vn -0.9747709922986733 0.0017093484739232378 -0.2232007856188111
vn -0.9749678850582112 0.013756499029246238 -0.22191976441853278
vn -0.9749678850582112 0.013756499029246238 -0.22191976441853278
vn -0.9749678850582112 0.013756499029246238 -0.22191976441853278
vn -0.9747400545165961 -0.0017103827900388185 0.22333584735034107
vn -0.9747400545165961 -0.0017103827900388185 0.22333584735034107
vn -0.9747400545165961 -0.0017103827900388185 0.22333584735034107
vn -0.9749509355278866 -0.013762980341927142 0.22199381452059969
vn -0.9749509355278866 -0.013762980341927142 0.22199381452059969
vn -0.9749509355278866 -0.013762980341927142 0.22199381452059969
vn -0.000006023275051231309 0.06186985462609218 -0.9980842254300316
vn -0.000006023275051231309 0.06186985462609218 -0.9980842254300316
vn -0.000006023275051231309 0.06186985462609218 -0.9980842254300316
vn 7.577974450382794e-18 0.06187885728080027 -0.9980836673453897
vn 7.577974450382794e-18 0.06187885728080027 -0.9980836673453897
vn 7.577974450382794e-18 0.06187885728080027 -0.9980836673453897
vn 0.000005671691527194832 -0.06187833034391014 0.9980836999979921
vn 0.000005671691527194832 -0.06187833034391014 0.9980836999979921
vn 0.000005671691527194832 -0.06187833034391014 0.9980836999979921
vn -7.57687194329303e-18 -0.0618698546272145 0.9980842254481369
vn -7.57687194329303e-18 -0.0618698546272145 0.9980842254481369
vn -7.57687194329303e-18 -0.0618698546272145 0.9980842254481369
f 1//1 2//2 3//3
f 4//4 5//5 6//6
f 7//7 8//8 9//9
f 10//10 11//11 12//12
f 13//13 14//14 15//15
f 16//16 17//17 18//18
f 19//19 20//20 21//21
f 22//22 23//23 24//24
f 25//25 26//26 27//27
f 28//28 29//29 30//30
f 31//31 32//32 33//33
f 34//34 35//35 36//36
f 37//37 38//38 39//39
f 40//40 41//41 42//42
f 43//43 44//44 45//45
f 46//46 47//47 48//48
f 49//49 50//50 51//51
f 52//52 53//53 54//54
f 55//55 56//56 57//57
f 58//58 59//59 60//60
f 61//61 62//62 63//63
f 64//64 65//65 66//66
f 67//67 68//68 69//69
f 70//70 71//71 72//72
f 73//73 74//74 75//75
f 76//76 77//77 78//78
f 79//79 80//80 81//81
f 82//82 83//83 84//84
f 85//85 86//86 87//87
f 88//88 89//89 90//90
f 91//91 92//92 93//93
f 94//94 95//95 96//96
f 97//97 98//98 99//99
f 100//100 101//101 102//102
f 103//103 104//104 105//105
f 106//106 107//107 108//108
f 109//109 110//110 111//111
f 112//112 113//113 114//114
f 115//115 116//116 117//117
f 118//118 119//119 120//120
f 121//121 122//122 123//123
f 124//124 125//125 126//126
f 127//127 128//128 129//129
f 130//130 131//131 132//132
f 133//133 134//134 135//135
f 136//136 137//137 138//138
f 139//139 140//140 141//141
f 142//142 143//143 144//144
f 145//145 146//146 147//147
f 148//148 149//149 150//150
f 151//151 152//152 153//153
f 154//154 155//155 156//156
f 157//157 158//158 159//159
f 160//160 161//161 162//162
f 163//163 164//164 165//165
f 166//166 167//167 168//168
f 169//169 170//170 171//171
f 172//172 173//173 174//174
f 175//175 176//176 177//177
f 178//178 179//179 180//180
f 181//181 182//182 183//183
f 184//184 185//185 186//186
f 187//187 188//188 189//189
f 190//190 191//191 192//192
f 193//193 194//194 195//195
f 196//196 197//197 198//198
f 199//199 200//200 201//201
f 202//202 203//203 204//204
f 205//205 206//206 207//207
f 208//208 209//209 210//210
f 211//211 212//212 213//213
f 214//214 215//215 216//216
f 217//217 218//218 219//219
f 220//220 221//221 222//222
f 223//223 224//224 225//225
f 226//226 227//227 228//228
f 229//229 230//230 231//231
f 232//232 233//233 234//234
f 235//235 236//236 237//237
f 238//238 239//239 240//240
f 241//241 242//242 243//243
f 244//244 245//245 246//246
f 247//247 248//248 249//249
f 250//250 251//251 252//252
f 253//253 254//254 255//255
f 256//256 257//257 258//258
f 259//259 260//260 261//261
f 262//262 263//263 264//264
f 265//265 266//266 267//267
f 268//268 269//269 270//270
f 271//271 272//272 273//273
f 274//274 275//275 276//276
f 277//277 278//278 279//279
f 280//280 281//281 282//282
f 283//283 284//284 285//285
f 286//286 287//287 288//288
f 289//289 290//290 291//291
f 292//292 293//293 294//294
f 295//295 296//296 297//297
f 298//298 299//299 300//300
f 301//301 302//302 303//303
f 304//304 305//305 306//306
f 307//307 308//308 309//309
f 310//310 311//311 312//312
f 313//313 314//314 315//315
f 316//316 317//317 318//318
f 319//319 320//320 321//321
f 322//322 323//323 324//324
f 325//325 326//326 327//327
f 328//328 329//329 330//330
f 331//331 332//332 333//333
f 334//334 335//335 336//336
f 337//337 338//338 339//339
f 340//340 341//341 342//342
f 343//343 344//344 345//345
f 346//346 347//347 348//348
f 349//349 350//350 351//351
f 352//352 353//353 354//354
f 355//355 356//356 357//357
f 358//358 359//359 360//360
f 361//361 362//362 363//363
f 364//364 365//365 366//366
f 367//367 368//368 369//369
f 370//370 371//371 372//372
f 373//373 374//374 375//375
f 376//376 377//377 378//378
f 379//379 380//380 381//381
f 382//382 383//383 384//384
f 385//385 386//386 387//387
f 388//388 389//389 390//390
f 391//391 392//392 393//393
f 394//394 395//395 396//396
f 397//397 398//398 399//399
f 400//400 401//401 402//402
f 403//403 404//404 405//405
f 406//406 407//407 408//408
f 409//409 410//410 411//411
f 412//412 413//413 414//414
f 415//415 416//416 417//417
f 418//418 419//419 420//420
f 421//421 422//422 423//423
f 424//424 425//425 426//426
f 427//427 428//428 429//429
f 430//430 431//431 432//432
f 433//433 434//434 435//435
f 436//436 437//437 438//438
f 439//439 440//440 441//441
f 442//442 443//443 444//444
f 445//445 446//446 447//447
f 448//448 449//449 450//450
f 451//451 452//452 453//453
f 454//454 455//455 456//456
