o 
usemtl missile
v -1.232683539390564 -2.4424906480086485e-22 -0.000001099999997222767
v -1.232683539390564 0.5087411880493165 0.20900165289640418
v -1.232683539390564 0.5075212836265565 -0.21194854229688656
v 3.855212926864624 -5.499999986113829e-7 0.000002749999930529157
v 2.5360019207000732 0.5075218409299851 -0.2119447067379953
v 2.536001443862915 0.5087411880493165 0.2090044066309928
v -1.232683539390564 -2.4424906480086485e-22 -0.000001099999997222767
v -1.232683539390564 0.5075212836265565 -0.21194854229688656
v -1.2326829433441162 0.2090021938085555 -0.5087423026561737
v 3.855212926864624 -5.499999986113829e-7 0.000002749999930529157
v 2.5360019207000732 0.20900275111198416 -0.5087389916181565
v 2.5360019207000732 0.5075218409299851 -0.2119447067379953
v -1.232683539390564 -2.4424906480086485e-22 -0.000001099999997222767
v -1.2326829433441162 0.2090021938085555 -0.5087423026561737
v -1.2326829433441162 -0.21194744408130659 -0.5075223982334137
v 3.855212926864624 -5.499999986113829e-7 0.000002749999930529157
v 2.5360019207000732 -0.21194744408130659 -0.5075196444988251
v 2.5360019207000732 0.20900275111198416 -0.5087389916181565
v -1.232683539390564 -2.4424906480086485e-22 -0.000001099999997222767
v -1.2326829433441162 -0.21194744408130659 -0.5075223982334137
v -1.232683539390564 -0.5087417453527451 -0.2090032920241355
v 3.855212926864624 -5.499999986113829e-7 0.000002749999930529157
v 2.5360019207000732 -0.5087417453527451 -0.20900109559297553
v 2.5360019207000732 -0.21194744408130659 -0.5075196444988251
v -1.232683539390564 -2.4424906480086485e-22 -0.000001099999997222767
v -1.232683539390564 -0.5087417453527451 -0.2090032920241355
v -1.232683539390564 -0.5075218409299851 0.21194690316915524
v 3.855212926864624 -5.499999986113829e-7 0.000002749999930529157
v 2.536001443862915 -0.5075218409299851 0.21194854229688656
v 2.5360019207000732 -0.5087417453527451 -0.20900109559297553
v -1.232683539390564 -2.4424906480086485e-22 -0.000001099999997222767
v -1.232683539390564 -0.5075218409299851 0.21194690316915524
v -1.232683539390564 -0.20900275111198416 0.5087406635284424
v 3.855212926864624 -5.499999986113829e-7 0.000002749999930529157
v 2.536001443862915 -0.2090021938085555 0.5087428599596024
v 2.536001443862915 -0.5075218409299851 0.21194854229688656
v -1.232683539390564 -2.4424906480086485e-22 -0.000001099999997222767
v -1.232683539390564 -0.20900275111198416 0.5087406635284424
v -1.2326840162277222 0.21194744408130659 0.5075207591056824
v 3.855212926864624 -5.499999986113829e-7 0.000002749999930529157
v 2.536001443862915 0.21194800138473524 0.5075229555368423
v 2.536001443862915 -0.2090021938085555 0.5087428599596024
v -1.2326840162277222 0.21194744408130659 0.5075207591056824
v -1.232683539390564 0.5087411880493165 0.20900165289640418
v -1.232683539390564 -2.4424906480086485e-22 -0.000001099999997222767
v 3.855212926864624 -5.499999986113829e-7 0.000002749999930529157
v 2.536001443862915 0.5087411880493165 0.2090044066309928
v 2.536001443862915 0.21194800138473524 0.5075229555368423
v -1.232683539390564 0.5087411880493165 0.20900165289640418
v -1.0658395290374756 0.5087411880493165 0.20900165289640418
v -1.0658390522003174 0.5075218409299851 -0.21194800138473524
v -1.232683539390564 0.5087411880493165 0.20900165289640418
v -1.0658390522003174 0.5075218409299851 -0.21194800138473524
v -1.232683539390564 0.5075212836265565 -0.21194854229688656
v -1.232683539390564 0.5075212836265565 -0.21194854229688656
v -1.0658390522003174 0.5075218409299851 -0.21194800138473524
v -1.0658390522003174 0.2090021938085555 -0.5087423026561737
v -1.232683539390564 0.5075212836265565 -0.21194854229688656
v -1.0658390522003174 0.2090021938085555 -0.5087423026561737
v -1.2326829433441162 0.2090021938085555 -0.5087423026561737
v -1.2326829433441162 0.2090021938085555 -0.5087423026561737
v -1.0658390522003174 0.2090021938085555 -0.5087423026561737
v -1.0658390522003174 -0.21194744408130659 -0.5075223982334137
v -1.2326829433441162 0.2090021938085555 -0.5087423026561737
v -1.0658390522003174 -0.21194744408130659 -0.5075223982334137
v -1.2326829433441162 -0.21194744408130659 -0.5075223982334137
v -1.2326829433441162 -0.21194744408130659 -0.5075223982334137
v -1.0658390522003174 -0.21194744408130659 -0.5075223982334137
v -1.0658390522003174 -0.5087417453527451 -0.2090032920241355
v -1.2326829433441162 -0.21194744408130659 -0.5075223982334137
v -1.0658390522003174 -0.5087417453527451 -0.2090032920241355
v -1.232683539390564 -0.5087417453527451 -0.2090032920241355
v -1.232683539390564 -0.5087417453527451 -0.2090032920241355
v -1.0658390522003174 -0.5087417453527451 -0.2090032920241355
v -1.0658395290374756 -0.5075218409299851 0.21194690316915524
v -1.232683539390564 -0.5087417453527451 -0.2090032920241355
v -1.0658395290374756 -0.5075218409299851 0.21194690316915524
v -1.232683539390564 -0.5075218409299851 0.21194690316915524
v -1.232683539390564 -0.5075218409299851 0.21194690316915524
v -1.0658395290374756 -0.5075218409299851 0.21194690316915524
v -1.0658395290374756 -0.20900275111198416 0.5087406635284424
v -1.232683539390564 -0.5075218409299851 0.21194690316915524
v -1.0658395290374756 -0.20900275111198416 0.5087406635284424
v -1.232683539390564 -0.20900275111198416 0.5087406635284424
v -1.232683539390564 -0.20900275111198416 0.5087406635284424
v -1.0658395290374756 -0.20900275111198416 0.5087406635284424
v -1.0658395290374756 0.21194744408130659 0.5075207591056824
v -1.232683539390564 -0.20900275111198416 0.5087406635284424
v -1.0658395290374756 0.21194744408130659 0.5075207591056824
v -1.2326840162277222 0.21194744408130659 0.5075207591056824
v -1.0658395290374756 0.5087411880493165 0.20900165289640418
v -1.232683539390564 0.5087411880493165 0.20900165289640418
v -1.2326840162277222 0.21194744408130659 0.5075207591056824
v -1.0658395290374756 0.5087411880493165 0.20900165289640418
v -1.2326840162277222 0.21194744408130659 0.5075207591056824
v -1.0658395290374756 0.21194744408130659 0.5075207591056824
v 2.202094554901123 0.5087411880493165 0.20900384932756413
v 2.536001443862915 0.5087411880493165 0.2090044066309928
v 2.5360019207000732 0.5075218409299851 -0.2119447067379953
v 2.202094554901123 0.5087411880493165 0.20900384932756413
v 2.5360019207000732 0.5075218409299851 -0.2119447067379953
v 2.202094554901123 0.5075212836265565 -0.2119452476501466
v 2.2020950317382812 0.2090021938085555 -0.5087395489215851
v 2.5360019207000732 0.20900275111198416 -0.5087389916181565
v 2.5360019207000732 -0.21194744408130659 -0.5075196444988251
v 2.2020950317382812 0.2090021938085555 -0.5087395489215851
v 2.5360019207000732 -0.21194744408130659 -0.5075196444988251
v 2.2020950317382812 -0.21194744408130659 -0.5075196444988251
v 2.202094554901123 -0.5087417453527451 -0.20900109559297553
v 2.5360019207000732 -0.5087417453527451 -0.20900109559297553
v 2.536001443862915 -0.5075218409299851 0.21194854229688656
v 2.202094554901123 -0.5087417453527451 -0.20900109559297553
v 2.536001443862915 -0.5075218409299851 0.21194854229688656
v 2.202094554901123 -0.5075218409299851 0.21194854229688656
v 2.202094078063965 -0.2090021938085555 0.5087428599596024
v 2.536001443862915 -0.2090021938085555 0.5087428599596024
v 2.536001443862915 0.21194800138473524 0.5075229555368423
v 2.202094078063965 -0.2090021938085555 0.5087428599596024
v 2.536001443862915 0.21194800138473524 0.5075229555368423
v 2.202094078063965 0.21194800138473524 0.5075223982334137
v 2.202094554901123 0.5087411880493165 0.20900384932756413
v 2.202094078063965 0.21194800138473524 0.5075223982334137
v 2.230839490890503 0.3644514620304109 0.4642137587070465
v 2.202094554901123 0.5087411880493165 0.20900384932756413
v 2.230839490890503 0.3644514620304109 0.4642137587070465
v 2.237194061279297 0.4560638517141343 0.3652417838573455
v 2.202094554901123 -0.5087417453527451 -0.20900109559297553
v 2.2020950317382812 -0.21194744408130659 -0.5075196444988251
v 2.2689225673675537 -0.3592594593763353 -0.4492966473102569
v 2.202094554901123 -0.5087417453527451 -0.20900109559297553
v 2.2689225673675537 -0.3592594593763353 -0.4492966473102569
v 2.2625679969787598 -0.45087240636348735 -0.3503247052431106
v 2.202094078063965 0.21194800138473524 0.5075223982334137
v 2.536001443862915 0.21194800138473524 0.5075229555368423
v 2.469250440597534 0.35832666456699386 0.4502063632011413
v 2.202094078063965 0.21194800138473524 0.5075223982334137
v 2.469250440597534 0.35832666456699386 0.4502063632011413
v 2.230839490890503 0.3644514620304109 0.4642137587070465
v 2.5360019207000732 -0.5087417453527451 -0.20900109559297553
v 2.202094554901123 -0.5087417453527451 -0.20900109559297553
v 2.2625679969787598 -0.45087240636348735 -0.3503247052431106
v 2.5360019207000732 -0.5087417453527451 -0.20900109559297553
v 2.2625679969787598 -0.45087240636348735 -0.3503247052431106
v 2.500978946685791 -0.456997761130333 -0.36433210074901573
v 2.2020950317382812 -0.21194744408130659 -0.5075196444988251
v 2.5360019207000732 -0.21194744408130659 -0.5075196444988251
v 2.5073330402374268 -0.36538425683975234 -0.4633040428161621
v 2.2020950317382812 -0.21194744408130659 -0.5075196444988251
v 2.5073330402374268 -0.36538425683975234 -0.4633040428161621
v 2.2689225673675537 -0.3592594593763353 -0.4492966473102569
v 2.536001443862915 0.5087411880493165 0.2090044066309928
v 2.202094554901123 0.5087411880493165 0.20900384932756413
v 2.237194061279297 0.4560638517141343 0.3652417838573455
v 2.536001443862915 0.5087411880493165 0.2090044066309928
v 2.237194061279297 0.4560638517141343 0.3652417838573455
v 2.47560453414917 0.44993905425071723 0.35123438835144033
v 2.536001443862915 0.21194800138473524 0.5075229555368423
v 2.536001443862915 0.5087411880493165 0.2090044066309928
v 2.47560453414917 0.44993905425071723 0.35123438835144033
v 2.536001443862915 0.21194800138473524 0.5075229555368423
v 2.47560453414917 0.44993905425071723 0.35123438835144033
v 2.469250440597534 0.35832666456699386 0.4502063632011413
v 2.5360019207000732 -0.21194744408130659 -0.5075196444988251
v 2.5360019207000732 -0.5087417453527451 -0.20900109559297553
v 2.500978946685791 -0.456997761130333 -0.36433210074901573
v 2.5360019207000732 -0.21194744408130659 -0.5075196444988251
v 2.500978946685791 -0.456997761130333 -0.36433210074901573
v 2.5073330402374268 -0.36538425683975234 -0.4633040428161621
v 2.5073330402374268 -0.36538425683975234 -0.4633040428161621
v 2.500978946685791 -0.456997761130333 -0.36433210074901573
v 1.8722695112228394 -0.5912516653537752 -0.6185630083084106
v 2.469250440597534 0.35832666456699386 0.4502063632011413
v 2.47560453414917 0.44993905425071723 0.35123438835144033
v 1.8586779832839966 0.6147421360015871 0.6321397721767424
v 2.47560453414917 0.44993905425071723 0.35123438835144033
v 2.237194061279297 0.4560638517141343 0.3652417838573455
v 1.8586779832839966 0.6147421360015871 0.6321397721767424
v 2.2689225673675537 -0.3592594593763353 -0.4492966473102569
v 2.5073330402374268 -0.36538425683975234 -0.4633040428161621
v 1.8722695112228394 -0.5912516653537752 -0.6185630083084106
v 2.500978946685791 -0.456997761130333 -0.36433210074901573
v 2.2625679969787598 -0.45087240636348735 -0.3503247052431106
v 1.8722695112228394 -0.5912516653537752 -0.6185630083084106
v 2.230839490890503 0.3644514620304109 0.4642137587070465
v 2.469250440597534 0.35832666456699386 0.4502063632011413
v 1.8586779832839966 0.6147421360015871 0.6321397721767424
v 2.2625679969787598 -0.45087240636348735 -0.3503247052431106
v 2.2689225673675537 -0.3592594593763353 -0.4492966473102569
v 1.8722695112228394 -0.5912516653537752 -0.6185630083084106
v 2.237194061279297 0.4560638517141343 0.3652417838573455
v 2.230839490890503 0.3644514620304109 0.4642137587070465
v 1.8586779832839966 0.6147421360015871 0.6321397721767424
v 2.202094078063965 -0.2090021938085555 0.5087428599596024
v 2.202094554901123 -0.5075218409299851 0.21194854229688656
v 2.278984546661377 -0.4471604377031326 0.3753271400928499
v 2.202094078063965 -0.2090021938085555 0.5087428599596024
v 2.278984546661377 -0.4471604377031326 0.3753271400928499
v 2.274855613708496 -0.37241873741149895 0.4524553120136262
v 2.2020950317382812 0.2090021938085555 -0.5087395489215851
v 2.202094554901123 0.5075212836265565 -0.2119452476501466
v 2.2760090827941895 0.4478594928979873 -0.37403078675270096
v 2.2020950317382812 0.2090021938085555 -0.5087395489215851
v 2.2760090827941895 0.4478594928979873 -0.37403078675270096
v 2.2801380157470703 0.3731177926063537 -0.4511595159769059
v 2.536001443862915 -0.2090021938085555 0.5087428599596024
v 2.202094078063965 -0.2090021938085555 0.5087428599596024
v 2.274855613708496 -0.37241873741149895 0.4524553120136262
v 2.536001443862915 -0.2090021938085555 0.5087428599596024
v 2.274855613708496 -0.37241873741149895 0.4524553120136262
v 2.45786452293396 -0.37490145862102503 0.4494649529457093
v 2.202094554901123 -0.5075218409299851 0.21194854229688656
v 2.536001443862915 -0.5075218409299851 0.21194854229688656
v 2.461993455886841 -0.44964315891265866 0.3723368138074876
v 2.202094554901123 -0.5075218409299851 0.21194854229688656
v 2.461993455886841 -0.44964315891265866 0.3723368138074876
v 2.278984546661377 -0.4471604377031326 0.3753271400928499
v 2.5360019207000732 0.20900275111198416 -0.5087389916181565
v 2.2020950317382812 0.2090021938085555 -0.5087395489215851
v 2.2801380157470703 0.3731177926063537 -0.4511595159769059
v 2.5360019207000732 0.20900275111198416 -0.5087389916181565
v 2.2801380157470703 0.3731177926063537 -0.4511595159769059
v 2.463146924972534 0.3706351041793822 -0.4541498422622682
v 2.202094554901123 0.5075212836265565 -0.2119452476501466
v 2.5360019207000732 0.5075218409299851 -0.2119447067379953
v 2.4590179920196533 0.4453762471675872 -0.3770211458206178
v 2.202094554901123 0.5075212836265565 -0.2119452476501466
v 2.4590179920196533 0.4453762471675872 -0.3770211458206178
v 2.2760090827941895 0.4478594928979873 -0.37403078675270096
v 2.536001443862915 -0.5075218409299851 0.21194854229688656
v 2.536001443862915 -0.2090021938085555 0.5087428599596024
v 2.45786452293396 -0.37490145862102503 0.4494649529457093
v 2.536001443862915 -0.5075218409299851 0.21194854229688656
v 2.45786452293396 -0.37490145862102503 0.4494649529457093
v 2.461993455886841 -0.44964315891265866 0.3723368138074876
v 2.5360019207000732 0.5075218409299851 -0.2119447067379953
v 2.5360019207000732 0.20900275111198416 -0.5087389916181565
v 2.463146924972534 0.3706351041793822 -0.4541498422622682
v 2.5360019207000732 0.5075218409299851 -0.2119447067379953
v 2.463146924972534 0.3706351041793822 -0.4541498422622682
v 2.4590179920196533 0.4453762471675872 -0.3770211458206178
v 2.4590179920196533 0.4453762471675872 -0.3770211458206178
v 2.463146924972534 0.3706351041793822 -0.4541498422622682
v 1.843093991279602 0.5851631581783294 -0.5197648465633394
v 2.461993455886841 -0.44964315891265866 0.3723368138074876
v 2.45786452293396 -0.37490145862102503 0.4494649529457093
v 1.8339279890060425 -0.6084743738174437 0.6412147700786592
v 2.2760090827941895 0.4478594928979873 -0.37403078675270096
v 2.4590179920196533 0.4453762471675872 -0.3770211458206178
v 1.843093991279602 0.5851631581783294 -0.5197648465633394
v 2.463146924972534 0.3706351041793822 -0.4541498422622682
v 2.2801380157470703 0.3731177926063537 -0.4511595159769059
v 1.843093991279602 0.5851631581783294 -0.5197648465633394
v 2.278984546661377 -0.4471604377031326 0.3753271400928499
v 2.461993455886841 -0.44964315891265866 0.3723368138074876
v 1.8339279890060425 -0.6084743738174437 0.6412147700786592
v 2.45786452293396 -0.37490145862102503 0.4494649529457093
v 2.274855613708496 -0.37241873741149895 0.4524553120136262
v 1.8339279890060425 -0.6084743738174437 0.6412147700786592
v 2.2801380157470703 0.3731177926063537 -0.4511595159769059
v 2.2760090827941895 0.4478594928979873 -0.37403078675270096
v 1.843093991279602 0.5851631581783294 -0.5197648465633394
v 2.274855613708496 -0.37241873741149895 0.4524553120136262
v 2.278984546661377 -0.4471604377031326 0.3753271400928499
v 1.8339279890060425 -0.6084743738174437 0.6412147700786592
v -0.05852049961686134 0.5087411880493165 0.2090021938085555
v 2.202094554901123 0.5087411880493165 0.20900384932756413
v 2.202094554901123 0.5075212836265565 -0.2119452476501466
v -0.05852049961686134 0.5087411880493165 0.2090021938085555
v 2.202094554901123 0.5075212836265565 -0.2119452476501466
v -0.05852000042796135 0.5075212836265565 -0.21194744408130659
v -1.0658390522003174 0.5075218409299851 -0.21194800138473524
v -0.05852000042796135 0.5075212836265565 -0.21194744408130659
v -0.05852000042796135 0.2090021938085555 -0.5087411880493165
v -1.0658390522003174 0.5075218409299851 -0.21194800138473524
v -0.05852000042796135 0.2090021938085555 -0.5087411880493165
v -1.0658390522003174 0.2090021938085555 -0.5087423026561737
v -0.05852000042796135 0.5075212836265565 -0.21194744408130659
v 2.202094554901123 0.5075212836265565 -0.2119452476501466
v 2.2020950317382812 0.2090021938085555 -0.5087395489215851
v -0.05852000042796135 0.5075212836265565 -0.21194744408130659
v 2.2020950317382812 0.2090021938085555 -0.5087395489215851
v -0.05852000042796135 0.2090021938085555 -0.5087411880493165
v -1.0658390522003174 0.2090021938085555 -0.5087423026561737
v -0.05852000042796135 0.2090021938085555 -0.5087411880493165
v -0.05852000042796135 -0.21194744408130659 -0.5075218409299851
v -1.0658390522003174 0.2090021938085555 -0.5087423026561737
v -0.05852000042796135 -0.21194744408130659 -0.5075218409299851
v -1.0658390522003174 -0.21194744408130659 -0.5075223982334137
v -0.05852000042796135 0.2090021938085555 -0.5087411880493165
v 2.2020950317382812 0.2090021938085555 -0.5087395489215851
v 2.2020950317382812 -0.21194744408130659 -0.5075196444988251
v -0.05852000042796135 0.2090021938085555 -0.5087411880493165
v 2.2020950317382812 -0.21194744408130659 -0.5075196444988251
v -0.05852000042796135 -0.21194744408130659 -0.5075218409299851
v -1.0658395290374756 -0.5075218409299851 0.21194690316915524
v -0.05852049961686134 -0.5075218409299851 0.21194744408130659
v -0.05852049961686134 -0.20900275111198416 0.5087411880493165
v -1.0658395290374756 -0.5075218409299851 0.21194690316915524
v -0.05852049961686134 -0.20900275111198416 0.5087411880493165
v -1.0658395290374756 -0.20900275111198416 0.5087406635284424
v -0.05852049961686134 -0.5075218409299851 0.21194744408130659
v 2.202094554901123 -0.5075218409299851 0.21194854229688656
v 2.202094078063965 -0.2090021938085555 0.5087428599596024
v -0.05852049961686134 -0.5075218409299851 0.21194744408130659
v 2.202094078063965 -0.2090021938085555 0.5087428599596024
v -0.05852049961686134 -0.20900275111198416 0.5087411880493165
v -1.0658395290374756 -0.20900275111198416 0.5087406635284424
v -0.05852049961686134 -0.20900275111198416 0.5087411880493165
v -0.05852049961686134 0.21194744408130659 0.5075212836265565
v -1.0658395290374756 -0.20900275111198416 0.5087406635284424
v -0.05852049961686134 0.21194744408130659 0.5075212836265565
v -1.0658395290374756 0.21194744408130659 0.5075207591056824
v -0.05852049961686134 -0.20900275111198416 0.5087411880493165
v 2.202094078063965 -0.2090021938085555 0.5087428599596024
v 2.202094078063965 0.21194800138473524 0.5075223982334137
v -0.05852049961686134 -0.20900275111198416 0.5087411880493165
v 2.202094078063965 0.21194800138473524 0.5075223982334137
v -0.05852049961686134 0.21194744408130659 0.5075212836265565
v 2.202094554901123 0.5087411880493165 0.20900384932756413
v -0.05852049961686134 0.5087411880493165 0.2090021938085555
v -0.05852049961686134 0.21194744408130659 0.5075212836265565
v 2.202094554901123 0.5087411880493165 0.20900384932756413
v -0.05852049961686134 0.21194744408130659 0.5075212836265565
v 2.202094078063965 0.21194800138473524 0.5075223982334137
v -0.05852049961686134 0.5087411880493165 0.2090021938085555
v -1.0658395290374756 0.5087411880493165 0.20900165289640418
v -1.0658395290374756 0.21194744408130659 0.5075207591056824
v -0.05852049961686134 0.5087411880493165 0.2090021938085555
v -1.0658395290374756 0.21194744408130659 0.5075207591056824
v -0.05852049961686134 0.21194744408130659 0.5075212836265565
v -0.05852000042796135 -0.5087417453527451 -0.20900275111198416
v 2.202094554901123 -0.5087417453527451 -0.20900109559297553
v 2.202094554901123 -0.5075218409299851 0.21194854229688656
v -0.05852000042796135 -0.5087417453527451 -0.20900275111198416
v 2.202094554901123 -0.5075218409299851 0.21194854229688656
v -0.05852049961686134 -0.5075218409299851 0.21194744408130659
v -1.0658390522003174 -0.21194744408130659 -0.5075223982334137
v -0.05852000042796135 -0.21194744408130659 -0.5075218409299851
v -0.05852000042796135 -0.5087417453527451 -0.20900275111198416
v -1.0658390522003174 -0.21194744408130659 -0.5075223982334137
v -0.05852000042796135 -0.5087417453527451 -0.20900275111198416
v -1.0658390522003174 -0.5087417453527451 -0.2090032920241355
v -0.05852000042796135 -0.21194744408130659 -0.5075218409299851
v 2.2020950317382812 -0.21194744408130659 -0.5075196444988251
v 2.202094554901123 -0.5087417453527451 -0.20900109559297553
v -0.05852000042796135 -0.21194744408130659 -0.5075218409299851
v 2.202094554901123 -0.5087417453527451 -0.20900109559297553
v -0.05852000042796135 -0.5087417453527451 -0.20900275111198416
v -0.05852000042796135 -0.5087417453527451 -0.20900275111198416
v -0.05852049961686134 -0.5075218409299851 0.21194744408130659
v -0.26404449343681335 -0.5768999218940736 0.09000639691948904
v -0.05852000042796135 -0.5087417453527451 -0.20900275111198416
v -0.26404449343681335 -0.5768999218940736 0.09000639691948904
v -0.26404449343681335 -0.5782870173454285 -0.0911162994801997
v -0.05852049961686134 0.5087411880493165 0.2090021938085555
v -0.05852000042796135 0.5075212836265565 -0.21194744408130659
v -0.26404449343681335 0.5771655917167664 -0.09238350093364729
v -0.05852049961686134 0.5087411880493165 0.2090021938085555
v -0.26404449343681335 0.5771655917167664 -0.09238350093364729
v -0.26404449343681335 0.5785526871681214 0.0887392036616801
v -0.05852000042796135 0.5075212836265565 -0.21194744408130659
v -1.0658390522003174 0.5075218409299851 -0.21194800138473524
v -0.860820472240448 0.5771655917167664 -0.09238405004143728
v -0.05852000042796135 0.5075212836265565 -0.21194744408130659
v -0.860820472240448 0.5771655917167664 -0.09238405004143728
v -0.26404449343681335 0.5771655917167664 -0.09238350093364729
v -1.0658395290374756 0.5087411880493165 0.20900165289640418
v -0.05852049961686134 0.5087411880493165 0.2090021938085555
v -0.26404449343681335 0.5785526871681214 0.0887392036616801
v -1.0658395290374756 0.5087411880493165 0.20900165289640418
v -0.26404449343681335 0.5785526871681214 0.0887392036616801
v -0.860820472240448 0.5785526871681214 0.0887392036616801
v -1.0658390522003174 -0.5087417453527451 -0.2090032920241355
v -0.05852000042796135 -0.5087417453527451 -0.20900275111198416
v -0.26404449343681335 -0.5782870173454285 -0.0911162994801997
v -1.0658390522003174 -0.5087417453527451 -0.2090032920241355
v -0.26404449343681335 -0.5782870173454285 -0.0911162994801997
v -0.860820472240448 -0.5782870173454285 -0.09111684858798969
v -0.05852049961686134 -0.5075218409299851 0.21194744408130659
v -1.0658395290374756 -0.5075218409299851 0.21194690316915524
v -0.860820472240448 -0.5768999218940736 0.09000584781169904
v -0.05852049961686134 -0.5075218409299851 0.21194744408130659
v -0.860820472240448 -0.5768999218940736 0.09000584781169904
v -0.26404449343681335 -0.5768999218940736 0.09000639691948904
v -1.0658395290374756 -0.5075218409299851 0.21194690316915524
v -1.0658390522003174 -0.5087417453527451 -0.2090032920241355
v -0.860820472240448 -0.5782870173454285 -0.09111684858798969
v -1.0658395290374756 -0.5075218409299851 0.21194690316915524
v -0.860820472240448 -0.5782870173454285 -0.09111684858798969
v -0.860820472240448 -0.5768999218940736 0.09000584781169904
v -1.0658390522003174 0.5075218409299851 -0.21194800138473524
v -1.0658395290374756 0.5087411880493165 0.20900165289640418
v -0.860820472240448 0.5785526871681214 0.0887392036616801
v -1.0658390522003174 0.5075218409299851 -0.21194800138473524
v -0.860820472240448 0.5785526871681214 0.0887392036616801
v -0.860820472240448 0.5771655917167664 -0.09238405004143728
v -0.860820472240448 0.5771655917167664 -0.09238405004143728
v -0.860820472240448 0.5785526871681214 0.0887392036616801
v -0.6098080277442932 1.668977165222168 0.03367704916745388
v -0.860820472240448 0.5771655917167664 -0.09238405004143728
v -0.6098080277442932 1.668977165222168 0.03367704916745388
v -0.6098080277442932 1.6649765133857728 -0.030852799303830045
v -0.860820472240448 -0.5768999218940736 0.09000584781169904
v -0.860820472240448 -0.5782870173454285 -0.09111684858798969
v -0.6098080277442932 -1.6679755926132203 -0.03040125034749471
v -0.860820472240448 -0.5768999218940736 0.09000584781169904
v -0.6098080277442932 -1.6679755926132203 -0.03040125034749471
v -0.6098080277442932 -1.663975465297699 0.03412914928048886
v -0.26404449343681335 -0.5768999218940736 0.09000639691948904
v -0.860820472240448 -0.5768999218940736 0.09000584781169904
v -0.6098080277442932 -1.663975465297699 0.03412914928048886
v -0.26404449343681335 -0.5768999218940736 0.09000639691948904
v -0.6098080277442932 -1.663975465297699 0.03412914928048886
v -0.5130209922790527 -1.663975465297699 0.03412914928048886
v -0.860820472240448 -0.5782870173454285 -0.09111684858798969
v -0.26404449343681335 -0.5782870173454285 -0.0911162994801997
v -0.5130209922790527 -1.6679762482643128 -0.03040125034749471
v -0.860820472240448 -0.5782870173454285 -0.09111684858798969
v -0.5130209922790527 -1.6679762482643128 -0.03040125034749471
v -0.6098080277442932 -1.6679755926132203 -0.03040125034749471
v -0.860820472240448 0.5785526871681214 0.0887392036616801
v -0.26404449343681335 0.5785526871681214 0.0887392036616801
v -0.5130209922790527 1.668976640701294 0.03367760032415353
v -0.860820472240448 0.5785526871681214 0.0887392036616801
v -0.5130209922790527 1.668976640701294 0.03367760032415353
v -0.6098080277442932 1.668977165222168 0.03367704916745388
v -0.26404449343681335 0.5771655917167664 -0.09238350093364729
v -0.860820472240448 0.5771655917167664 -0.09238405004143728
v -0.6098080277442932 1.6649765133857728 -0.030852799303830045
v -0.26404449343681335 0.5771655917167664 -0.09238350093364729
v -0.6098080277442932 1.6649765133857728 -0.030852799303830045
v -0.5130209922790527 1.6649765133857728 -0.030852799303830045
v -0.26404449343681335 0.5785526871681214 0.0887392036616801
v -0.26404449343681335 0.5771655917167664 -0.09238350093364729
v -0.5130209922790527 1.6649765133857728 -0.030852799303830045
v -0.26404449343681335 0.5785526871681214 0.0887392036616801
v -0.5130209922790527 1.6649765133857728 -0.030852799303830045
v -0.5130209922790527 1.668976640701294 0.03367760032415353
v -0.26404449343681335 -0.5782870173454285 -0.0911162994801997
v -0.26404449343681335 -0.5768999218940736 0.09000639691948904
v -0.5130209922790527 -1.663975465297699 0.03412914928048886
v -0.26404449343681335 -0.5782870173454285 -0.0911162994801997
v -0.5130209922790527 -1.663975465297699 0.03412914928048886
v -0.5130209922790527 -1.6679762482643128 -0.03040125034749471
v -0.6098080277442932 1.668977165222168 0.03367704916745388
v -0.5130209922790527 1.668976640701294 0.03367760032415353
v -0.5130209922790527 1.6649765133857728 -0.030852799303830045
v -0.6098080277442932 1.668977165222168 0.03367704916745388
v -0.5130209922790527 1.6649765133857728 -0.030852799303830045
v -0.6098080277442932 1.6649765133857728 -0.030852799303830045
v -0.6098080277442932 -1.6679755926132203 -0.03040125034749471
v -0.5130209922790527 -1.6679762482643128 -0.03040125034749471
v -0.5130209922790527 -1.663975465297699 0.03412914928048886
v -0.6098080277442932 -1.6679755926132203 -0.03040125034749471
v -0.5130209922790527 -1.663975465297699 0.03412914928048886
v -0.6098080277442932 -1.663975465297699 0.03412914928048886
vn -1 0 0
vn -1 0 0
vn -1 0 0
vn 0.35943828315452886 0.9331649459372819 -0.0027026425576303524
vn 0.35943828315452886 0.9331649459372819 -0.0027026425576303524
vn 0.35943828315452886 0.9331649459372819 -0.0027026425576303524
vn -0.9999999999991735 -4.954369552991631e-7 -0.0000011863545006969979
vn -0.9999999999991735 -4.954369552991631e-7 -0.0000011863545006969979
vn -0.9999999999991735 -4.954369552991631e-7 -0.0000011863545006969979
vn 0.3594384202377185 0.6579354477747512 -0.6617589958727051
vn 0.3594384202377185 0.6579354477747512 -0.6617589958727051
vn 0.3594384202377185 0.6579354477747512 -0.6617589958727051
vn -0.9999999999995159 -2.8515733209054234e-9 -9.8398944911293e-7
vn -0.9999999999995159 -2.8515733209054234e-9 -9.8398944911293e-7
vn -0.9999999999995159 -2.8515733209054234e-9 -9.8398944911293e-7
vn 0.3594383307390374 -0.0027030623363959025 -0.933164926392725
vn 0.3594383307390374 -0.0027030623363959025 -0.933164926392725
vn 0.3594383307390374 -0.0027030623363959025 -0.933164926392725
vn -0.9999999999991735 4.885516670000648e-7 -0.0000011892057665870541
vn -0.9999999999991735 4.885516670000648e-7 -0.0000011892057665870541
vn -0.9999999999991735 4.885516670000648e-7 -0.0000011892057665870541
vn 0.35943829420942197 -0.6617584132176629 -0.6579361026661037
vn 0.35943829420942197 -0.6617584132176629 -0.6579361026661037
vn 0.35943829420942197 -0.6617584132176629 -0.6579361026661037
vn -1 0 0
vn -1 0 0
vn -1 0 0
vn 0.3594377617785575 -0.933165140763601 0.002704712788775574
vn 0.3594377617785575 -0.933165140763601 0.002704712788775574
vn 0.3594377617785575 -0.933165140763601 0.002704712788775574
vn -1 0 0
vn -1 0 0
vn -1 0 0
vn 0.35943699549691316 -0.6579352150570734 0.6617600011000625
vn 0.35943699549691316 -0.6579352150570734 0.6617600011000625
vn 0.35943699549691316 -0.6579352150570734 0.6617600011000625
vn -0.9999999999991735 -0.0000011892047330703477 -4.885525454892653e-7
vn -0.9999999999991735 -0.0000011892047330703477 -4.885525454892653e-7
vn -0.9999999999991735 -0.0000011892047330703477 -4.885525454892653e-7
vn 0.3594370339460359 0.002704283127931677 0.9331654223559939
vn 0.3594370339460359 0.002704283127931677 0.9331654223559939
vn 0.3594370339460359 0.002704283127931677 0.9331654223559939
vn -0.9999999999991735 4.885532172751245e-7 -0.0000011892051464770301
vn -0.9999999999991735 4.885532172751245e-7 -0.0000011892051464770301
vn -0.9999999999991735 4.885532172751245e-7 -0.0000011892051464770301
vn 0.35943770031814926 0.6617598090883289 0.6579350231332717
vn 0.35943770031814926 0.6617598090883289 0.6579350231332717
vn 0.35943770031814926 0.6617598090883289 0.6579350231332717
vn 0 0.9999958046933747 -0.002896652490386364
vn 0 0.9999958046933747 -0.002896652490386364
vn 0 0.9999958046933747 -0.002896652490386364
vn -0.0000032869157196589304 0.9999958009137074 -0.002897955166854317
vn -0.0000032869157196589304 0.9999958009137074 -0.002897955166854317
vn -0.0000032869157196589304 0.9999958009137074 -0.002897955166854317
vn 1.3511236791199083e-8 0.7050544547508026 -0.7091531681068963
vn 1.3511236791199083e-8 0.7050544547508026 -0.7091531681068963
vn 1.3511236791199083e-8 0.7050544547508026 -0.7091531681068963
vn 0 0.7050544547508029 -0.7091531681068965
vn 0 0.7050544547508029 -0.7091531681068965
vn 0 0.7050544547508029 -0.7091531681068965
vn 0 -0.0028979591249575663 -0.9999958009076387
vn 0 -0.0028979591249575663 -0.9999958009076387
vn 0 -0.0028979591249575663 -0.9999958009076387
vn 0 -0.0028979591249575663 -0.9999958009076387
vn 0 -0.0028979591249575663 -0.9999958009076387
vn 0 -0.0028979591249575663 -0.9999958009076387
vn 0 -0.7091525143612297 -0.7050551122962984
vn 0 -0.7091525143612297 -0.7050551122962984
vn 0 -0.7091525143612297 -0.7050551122962984
vn 0 -0.7091525143612297 -0.7050551122962984
vn 0 -0.7091525143612297 -0.7050551122962984
vn 0 -0.7091525143612297 -0.7050551122962984
vn 0 -0.9999958009191091 0.002897955166869971
vn 0 -0.9999958009191091 0.002897955166869971
vn 0 -0.9999958009191091 0.002897955166869971
vn 0 -0.9999958009191091 0.002897955166869971
vn 0 -0.9999958009191091 0.002897955166869971
vn 0 -0.9999958009191091 0.002897955166869971
vn 0 -0.7050544547508029 0.7091531681068965
vn 0 -0.7050544547508029 0.7091531681068965
vn 0 -0.7050544547508029 0.7091531681068965
vn 0 -0.7050544547508029 0.7091531681068965
vn 0 -0.7050544547508029 0.7091531681068965
vn 0 -0.7050544547508029 0.7091531681068965
vn 0 0.002897955166869971 0.9999958009191091
vn 0 0.002897955166869971 0.9999958009191091
vn 0 0.002897955166869971 0.9999958009191091
vn 0 0.002897955166869971 0.9999958009191091
vn 0 0.002897955166869971 0.9999958009191091
vn 0 0.002897955166869971 0.9999958009191091
vn 0 0.7091531681068965 0.7050544547508029
vn 0 0.7091531681068965 0.7050544547508029
vn 0 0.7091531681068965 0.7050544547508029
vn 0 0.7091531681068965 0.7050544547508029
vn 0 0.7091531681068965 0.7050544547508029
vn 0 0.7091531681068965 0.7050544547508029
vn 4.771271534740806e-9 0.9999958046825838 -0.002896656215645319
vn 4.771271534740806e-9 0.9999958046825838 -0.002896656215645319
vn 4.771271534740806e-9 0.9999958046825838 -0.002896656215645319
vn -0.000001642382382343487 0.9999958008954944 -0.0028979628502125714
vn -0.000001642382382343487 0.9999958008954944 -0.0028979628502125714
vn -0.000001642382382343487 0.9999958008954944 -0.0028979628502125714
vn 0.0000016519295020546483 -0.002896648765123456 -0.999995804702801
vn 0.0000016519295020546483 -0.002896648765123456 -0.999995804702801
vn 0.0000016519295020546483 -0.002896648765123456 -0.999995804702801
vn 0 -0.0028979591249575663 -0.9999958009076387
vn 0 -0.0028979591249575663 -0.9999958009076387
vn 0 -0.0028979591249575663 -0.9999958009076387
vn 0 -0.9999958009076387 0.0028979591249575663
vn 0 -0.9999958009076387 0.0028979591249575663
vn 0 -0.9999958009076387 0.0028979591249575663
vn 0 -0.9999958009076387 0.0028979591249575663
vn 0 -0.9999958009076387 0.0028979591249575663
vn 0 -0.9999958009076387 0.0028979591249575663
vn 0 0.002897955166869971 0.9999958009191091
vn 0 0.002897955166869971 0.9999958009191091
vn 0 0.002897955166869971 0.9999958009191091
vn -0.000001647155843446936 0.0028992619742311916 0.9999957971298137
vn -0.000001647155843446936 0.0028992619742311916 0.9999957971298137
vn -0.000001647155843446936 0.0028992619742311916 0.9999957971298137
vn -0.9377501280529673 0.24629723591616204 0.24487214810325394
vn -0.9377501280529673 0.24629723591616204 0.24487214810325394
vn -0.9377501280529673 0.24629723591616204 0.24487214810325394
vn -0.8472266048287647 0.41586730901577135 0.33054721502730144
vn -0.8472266048287647 0.41586730901577135 0.33054721502730144
vn -0.8472266048287647 0.41586730901577135 0.33054721502730144
vn -0.6883489841931173 -0.5144037442188625 -0.5114337336292148
vn -0.6883489841931173 -0.5144037442188625 -0.5114337336292148
vn -0.6883489841931173 -0.5144037442188625 -0.5114337336292148
vn -0.7053837085510999 -0.49703176882463485 -0.505364466983732
vn -0.7053837085510999 -0.49703176882463485 -0.505364466983732
vn -0.7053837085510999 -0.49703176882463485 -0.505364466983732
vn -0.0000015337736840623578 0.36460834201153636 0.9311609726214078
vn -0.0000015337736840623578 0.36460834201153636 0.9311609726214078
vn -0.0000015337736840623578 0.36460834201153636 0.9311609726214078
vn 0.06330533701791302 0.2615746283258778 0.9631049517686155
vn 0.06330533701791302 0.2615746283258778 0.9631049517686155
vn 0.06330533701791302 0.2615746283258778 0.9631049517686155
vn 0 -0.9254203450629318 -0.37894219208687263
vn 0 -0.9254203450629318 -0.37894219208687263
vn 0 -0.9254203450629318 -0.37894219208687263
vn -0.0424710459458533 -0.9507198630856744 -0.30712855971176284
vn -0.0424710459458533 -0.9507198630856744 -0.30712855971176284
vn -0.0424710459458533 -0.9507198630856744 -0.30712855971176284
vn 0 -0.2769003790519084 -0.9608986315324366
vn 0 -0.2769003790519084 -0.9608986315324366
vn 0 -0.2769003790519084 -0.9608986315324366
vn -0.063990472855876 -0.39178752850143667 -0.9178277354135781
vn -0.063990472855876 -0.39178752850143667 -0.9178277354135781
vn -0.063990472855876 -0.39178752850143667 -0.9178277354135781
vn -5.262534582268766e-7 0.9475895211069072 0.3194903746407784
vn -5.262534582268766e-7 0.9475895211069072 0.3194903746407784
vn -5.262534582268766e-7 0.9475895211069072 0.3194903746407784
vn 0.0469495016939504 0.9159199405123873 0.3986055780624185
vn 0.0469495016939504 0.9159199405123873 0.3986055780624185
vn 0.0469495016939504 0.9159199405123873 0.3986055780624185
vn 0.6962277561660568 0.5090449934410637 0.506102861280753
vn 0.6962277561660568 0.5090449934410637 0.506102861280753
vn 0.6962277561660568 0.5090449934410637 0.506102861280753
vn 0.6817762778203711 0.5145293944246828 0.5200390459132556
vn 0.6817762778203711 0.5145293944246828 0.5200390459132556
vn 0.6817762778203711 0.5145293944246828 0.5200390459132556
vn 0.9011939311986744 -0.3073578181869426 -0.3055825092672044
vn 0.9011939311986744 -0.3073578181869426 -0.3055825092672044
vn 0.9011939311986744 -0.3073578181869426 -0.3055825092672044
vn 0.9646169838637083 -0.22146223110487154 -0.14306835651441127
vn 0.9646169838637083 -0.22146223110487154 -0.14306835651441127
vn 0.9646169838637083 -0.22146223110487154 -0.14306835651441127
vn 0.39366759756308023 -0.687065800676155 -0.6107097577165006
vn 0.39366759756308023 -0.687065800676155 -0.6107097577165006
vn 0.39366759756308023 -0.687065800676155 -0.6107097577165006
vn 0.4535200577937864 0.6393518859356918 0.6209256985575607
vn 0.4535200577937864 0.6393518859356918 0.6209256985575607
vn 0.4535200577937864 0.6393518859356918 0.6209256985575607
vn -0.008609732440399892 0.8541182752998479 -0.5200075425473345
vn -0.008609732440399892 0.8541182752998479 -0.5200075425473345
vn -0.008609732440399892 0.8541182752998479 -0.5200075425473345
vn -0.029984779248046066 0.6220972972358864 -0.7823655576424944
vn -0.029984779248046066 0.6220972972358864 -0.7823655576424944
vn -0.029984779248046066 0.6220972972358864 -0.7823655576424944
vn 0.0041377345948757395 -0.8884564435147236 0.4589422917204202
vn 0.0041377345948757395 -0.8884564435147236 0.4589422917204202
vn 0.0041377345948757395 -0.8884564435147236 0.4589422917204202
vn 0.03687922628034115 -0.518373350570996 0.8543588192830707
vn 0.03687922628034115 -0.518373350570996 0.8543588192830707
vn 0.03687922628034115 -0.518373350570996 0.8543588192830707
vn -0.5851288094557996 0.6135034779028207 0.5303185447879246
vn -0.5851288094557996 0.6135034779028207 0.5303185447879246
vn -0.5851288094557996 0.6135034779028207 0.5303185447879246
vn -0.6222045996890356 -0.5541919948695603 -0.5529309802753906
vn -0.6222045996890356 -0.5541919948695603 -0.5529309802753906
vn -0.6222045996890356 -0.5541919948695603 -0.5529309802753906
vn -0.6900185139575877 -0.5103131712933252 0.513278596475941
vn -0.6900185139575877 -0.5103131712933252 0.513278596475941
vn -0.6900185139575877 -0.5103131712933252 0.513278596475941
vn -0.7597900431637219 -0.48676108614351216 0.43102521425742335
vn -0.7597900431637219 -0.48676108614351216 0.43102521425742335
vn -0.7597900431637219 -0.48676108614351216 0.43102521425742335
vn -0.7020998254824246 0.5020540383144495 -0.5049728484480156
vn -0.7020998254824246 0.5020540383144495 -0.5049728484480156
vn -0.7020998254824246 0.5020540383144495 -0.5049728484480156
vn -0.6791146927737174 0.5086295538340998 -0.5292439995175987
vn -0.6791146927737174 0.5086295538340998 -0.5292439995175987
vn -0.6791146927737174 0.5086295538340998 -0.5292439995175987
vn 0 -0.32566496744012585 0.9454852346717119
vn 0 -0.32566496744012585 0.9454852346717119
vn 0 -0.32566496744012585 0.9454852346717119
vn 0.010734738158144136 -0.3409385350726331 0.9400242979302199
vn 0.010734738158144136 -0.3409385350726331 0.9400242979302199
vn 0.010734738158144136 -0.3409385350726331 0.9400242979302199
vn 0 -0.9406274644944412 0.33944067675922224
vn 0 -0.9406274644944412 0.33944067675922224
vn 0 -0.9406274644944412 0.33944067675922224
vn -0.007000401801374612 -0.9369289672303661 0.3494497170398896
vn -0.007000401801374612 -0.9369289672303661 0.3494497170398896
vn -0.007000401801374612 -0.9369289672303661 0.3494497170398896
vn 0.000001008959637264794 0.3310649087652735 -0.9436079833189327
vn 0.000001008959637264794 0.3310649087652735 -0.9436079833189327
vn 0.000001008959637264794 0.3310649087652735 -0.9436079833189327
vn -0.011225829493726806 0.31541407237686925 -0.9488877403037816
vn -0.011225829493726806 0.31541407237686925 -0.9488877403037816
vn -0.011225829493726806 0.31541407237686925 -0.9488877403037816
vn -9.6120574574774e-7 0.9358776159800009 -0.35232525868388476
vn -9.6120574574774e-7 0.9358776159800009 -0.35232525868388476
vn -9.6120574574774e-7 0.9358776159800009 -0.35232525868388476
vn 0.007150507135588583 0.939473017340462 -0.34254827387816783
vn 0.007150507135588583 0.939473017340462 -0.34254827387816783
vn 0.007150507135588583 0.939473017340462 -0.34254827387816783
vn 0.6921441862731829 -0.5088795888559017 0.5118378546513357
vn 0.6921441862731829 -0.5088795888559017 0.5118378546513357
vn 0.6921441862731829 -0.5088795888559017 0.5118378546513357
vn 0.7171006503540189 -0.4809374517457056 0.5044460573442814
vn 0.7171006503540189 -0.4809374517457056 0.5044460573442814
vn 0.7171006503540189 -0.4809374517457056 0.5044460573442814
vn 0.7184367582511391 0.49043090603505574 -0.4932810059177516
vn 0.7184367582511391 0.49043090603505574 -0.4932810059177516
vn 0.7184367582511391 0.49043090603505574 -0.4932810059177516
vn 0.6449142456085442 0.5658028007033873 -0.5137633760082216
vn 0.6449142456085442 0.5658028007033873 -0.5137633760082216
vn 0.6449142456085442 0.5658028007033873 -0.5137633760082216
vn 0.3083396803962893 0.6913405394374067 -0.6534331641595105
vn 0.3083396803962893 0.6913405394374067 -0.6534331641595105
vn 0.3083396803962893 0.6913405394374067 -0.6534331641595105
vn 0.4341089455322468 -0.6352092173856686 0.6387947037641803
vn 0.4341089455322468 -0.6352092173856686 0.6387947037641803
vn 0.4341089455322468 -0.6352092173856686 0.6387947037641803
vn 0.020937683408296107 0.7579829834417421 0.6519381950969354
vn 0.020937683408296107 0.7579829834417421 0.6519381950969354
vn 0.020937683408296107 0.7579829834417421 0.6519381950969354
vn -0.02001248290656286 -0.34487027225381367 -0.938436996203525
vn -0.02001248290656286 -0.34487027225381367 -0.938436996203525
vn -0.02001248290656286 -0.34487027225381367 -0.938436996203525
vn -0.020262332821236444 -0.8393798013563051 -0.543167549604808
vn -0.020262332821236444 -0.8393798013563051 -0.543167549604808
vn -0.020262332821236444 -0.8393798013563051 -0.543167549604808
vn 0.021206830253598936 0.5999217867598073 0.7997775441468181
vn 0.021206830253598936 0.5999217867598073 0.7997775441468181
vn 0.021206830253598936 0.5999217867598073 0.7997775441468181
vn -0.4190918568780312 -0.6631330464130444 0.6201746352870933
vn -0.4190918568780312 -0.6631330464130444 0.6201746352870933
vn -0.4190918568780312 -0.6631330464130444 0.6201746352870933
vn -0.5625575000951385 0.5784655710019558 -0.5906831995681692
vn -0.5625575000951385 0.5784655710019558 -0.5906831995681692
vn -0.5625575000951385 0.5784655710019558 -0.5906831995681692
vn 2.115193674637056e-9 0.999995800896843 -0.0028979628502164797
vn 2.115193674637056e-9 0.999995800896843 -0.0028979628502164797
vn 2.115193674637056e-9 0.999995800896843 -0.0028979628502164797
vn 2.820255220474795e-9 0.9999958009076387 -0.0028979591249575663
vn 2.820255220474795e-9 0.9999958009076387 -0.0028979591249575663
vn 2.820255220474795e-9 0.9999958009076387 -0.0028979591249575663
vn 7.721627503756021e-7 0.7050544547505926 -0.709153168106685
vn 7.721627503756021e-7 0.7050544547505926 -0.709153168106685
vn 7.721627503756021e-7 0.7050544547505926 -0.709153168106685
vn 7.744006189098617e-7 0.7050544547505915 -0.7091531681066839
vn 7.744006189098617e-7 0.7050544547505915 -0.7091531681066839
vn 7.744006189098617e-7 0.7050544547505915 -0.7091531681066839
vn 6.901377735485396e-7 0.7050551122961305 -0.7091525143610607
vn 6.901377735485396e-7 0.7050551122961305 -0.7091525143610607
vn 6.901377735485396e-7 0.7050551122961305 -0.7091525143610607
vn 5.176037039372729e-7 0.7050544547507083 -0.7091531681068014
vn 5.176037039372729e-7 0.7050544547507083 -0.7091531681068014
vn 5.176037039372729e-7 0.7050544547507083 -0.7091531681068014
vn 0.0000010920030466931899 -0.0028966524903846365 -0.9999958046927784
vn 0.0000010920030466931899 -0.0028966524903846365 -0.9999958046927784
vn 0.0000010920030466931899 -0.0028966524903846365 -0.9999958046927784
vn 5.460015212798128e-7 -0.0028979591249571343 -0.9999958009074899
vn 5.460015212798128e-7 -0.0028979591249571343 -0.9999958009074899
vn 5.460015212798128e-7 -0.0028979591249571343 -0.9999958009074899
vn 7.298867817721547e-7 -0.0028979591249567948 -0.9999958009073725
vn 7.298867817721547e-7 -0.0028979591249567948 -0.9999958009073725
vn 7.298867817721547e-7 -0.0028979591249567948 -0.9999958009073725
vn 9.731824210654042e-7 -0.002896652490384992 -0.9999958046929012
vn 9.731824210654042e-7 -0.002896652490384992 -0.9999958046929012
vn 9.731824210654042e-7 -0.002896652490384992 -0.9999958046929012
vn -3.872003094550179e-7 -0.7050544547507499 0.7091531681068433
vn -3.872003094550179e-7 -0.7050544547507499 0.7091531681068433
vn -3.872003094550179e-7 -0.7050544547507499 0.7091531681068433
vn -3.872003094550179e-7 -0.7050544547507499 0.7091531681068433
vn -3.872003094550179e-7 -0.7050544547507499 0.7091531681068433
vn -3.872003094550179e-7 -0.7050544547507499 0.7091531681068433
vn -3.4506913595820765e-7 -0.7050544547507608 0.7091531681068542
vn -3.4506913595820765e-7 -0.7050544547507608 0.7091531681068542
vn -3.4506913595820765e-7 -0.7050544547507608 0.7091531681068542
vn -3.460664224680483e-7 -0.7050544547507606 0.709153168106854
vn -3.460664224680483e-7 -0.7050544547507606 0.709153168106854
vn -3.460664224680483e-7 -0.7050544547507606 0.709153168106854
vn -5.460015212860758e-7 0.0028979551668695397 0.9999958009189602
vn -5.460015212860758e-7 0.0028979551668695397 0.9999958009189602
vn -5.460015212860758e-7 0.0028979551668695397 0.9999958009189602
vn -5.460015212860758e-7 0.0028979551668695397 0.9999958009189602
vn -5.460015212860758e-7 0.0028979551668695397 0.9999958009189602
vn -5.460015212860758e-7 0.0028979551668695397 0.9999958009189602
vn -7.305923857933467e-7 0.0028992619742343514 0.9999957971309035
vn -7.305923857933467e-7 0.0028992619742343514 0.9999957971309035
vn -7.305923857933467e-7 0.0028992619742343514 0.9999957971309035
vn -4.872963654992985e-7 0.0028979551668696273 0.9999958009189904
vn -4.872963654992985e-7 0.0028979551668696273 0.9999958009189904
vn -4.872963654992985e-7 0.0028979551668696273 0.9999958009189904
vn -5.146121257826721e-7 0.7091531681068026 0.7050544547507095
vn -5.146121257826721e-7 0.7091531681068026 0.7050544547507095
vn -5.146121257826721e-7 0.7091531681068026 0.7050544547507095
vn -5.156094122925126e-7 0.7091531681068023 0.7050544547507092
vn -5.156094122925126e-7 0.7091531681068023 0.7050544547507092
vn -5.156094122925126e-7 0.7091531681068023 0.7050544547507092
vn -3.8496240965687683e-7 0.7091531681068439 0.7050544547507506
vn -3.8496240965687683e-7 0.7091531681068439 0.7050544547507506
vn -3.8496240965687683e-7 0.7091531681068439 0.7050544547507506
vn -3.8496240965687683e-7 0.7091531681068439 0.7050544547507506
vn -3.8496240965687683e-7 0.7091531681068439 0.7050544547507506
vn -3.8496240965687683e-7 0.7091531681068439 0.7050544547507506
vn -2.1151914764183613e-9 -0.9999958009076387 0.0028979591249575663
vn -2.1151914764183613e-9 -0.9999958009076387 0.0028979591249575663
vn -2.1151914764183613e-9 -0.9999958009076387 0.0028979591249575663
vn -1.4101254120120424e-9 -0.9999958009191091 0.002897955166869971
vn -1.4101254120120424e-9 -0.9999958009191091 0.002897955166869971
vn -1.4101254120120424e-9 -0.9999958009191091 0.002897955166869971
vn 3.8496278585779245e-7 -0.7091525143611772 -0.7050551122962462
vn 3.8496278585779245e-7 -0.7091525143611772 -0.7050551122962462
vn 3.8496278585779245e-7 -0.7091525143611772 -0.7050551122962462
vn 3.8496278585779245e-7 -0.7091525143611772 -0.7050551122962462
vn 3.8496278585779245e-7 -0.7091525143611772 -0.7050551122962462
vn 3.8496278585779245e-7 -0.7091525143611772 -0.7050551122962462
vn 6.861507552853358e-7 -0.7091518606147829 -0.7050557698410254
vn 6.861507552853358e-7 -0.7091518606147829 -0.7050557698410254
vn 6.861507552853358e-7 -0.7091518606147829 -0.7050557698410254
vn 5.14612721179104e-7 -0.7091525143611358 -0.705055112296205
vn 5.14612721179104e-7 -0.7091525143611358 -0.705055112296205
vn 5.14612721179104e-7 -0.7091525143611358 -0.705055112296205
vn 0.318370531560249 -0.9479623703746831 0.0027475421118978217
vn 0.318370531560249 -0.9479623703746831 0.0027475421118978217
vn 0.318370531560249 -0.9479623703746831 0.0027475421118978217
vn 0.3242440457791496 -0.945945726647802 0.007244378063757674
vn 0.3242440457791496 -0.945945726647802 0.007244378063757674
vn 0.3242440457791496 -0.945945726647802 0.007244378063757674
vn 0.31950149683241225 0.9475817931630536 -0.0027456852951566117
vn 0.31950149683241225 0.9475817931630536 -0.0027456852951566117
vn 0.31950149683241225 0.9475817931630536 -0.0027456852951566117
vn 0.32541534276221923 0.9455434513068688 -0.007241297234771959
vn 0.32541534276221923 0.9455434513068688 -0.007241297234771959
vn 0.32541534276221923 0.9455434513068688 -0.007241297234771959
vn 7.466170932384397e-7 0.8640986554797979 -0.5033224747589244
vn 7.466170932384397e-7 0.8640986554797979 -0.5033224747589244
vn 7.466170932384397e-7 0.8640986554797979 -0.5033224747589244
vn 4.638727852694098e-7 0.8640978219223727 -0.5033239057990352
vn 4.638727852694098e-7 0.8640978219223727 -0.5033239057990352
vn 4.638727852694098e-7 0.8640978219223727 -0.5033239057990352
vn -2.7411339291658804e-7 0.8648469041170875 0.5020356884117044
vn -2.7411339291658804e-7 0.8648469041170875 0.5020356884117044
vn -2.7411339291658804e-7 0.8648469041170875 0.5020356884117044
vn 0 0.8648461135945381 0.5020370502267968
vn 0 0.8648461135945381 0.5020370502267968
vn 0 0.8648461135945381 0.5020370502267968
vn 2.774282025637873e-7 -0.8612940913602117 -0.5081067684925188
vn 2.774282025637873e-7 -0.8612940913602117 -0.5081067684925188
vn 2.774282025637873e-7 -0.8612940913602117 -0.5081067684925188
vn 4.682816137467774e-7 -0.861293535509254 -0.5081077107166849
vn 4.682816137467774e-7 -0.861293535509254 -0.5081077107166849
vn 4.682816137467774e-7 -0.861293535509254 -0.5081077107166849
vn -2.7000559755176667e-7 -0.8691706162305078 0.4945123253078799
vn -2.7000559755176667e-7 -0.8691706162305078 0.4945123253078799
vn -2.7000559755176667e-7 -0.8691706162305078 0.4945123253078799
vn -4.557527272721709e-7 -0.8691700879525754 0.4945132538247124
vn -4.557527272721709e-7 -0.8691700879525754 0.4945132538247124
vn -4.557527272721709e-7 -0.8691700879525754 0.4945132538247124
vn -0.3226487803654685 -0.9465147873917438 0.002742585903479332
vn -0.3226487803654685 -0.9465147873917438 0.002742585903479332
vn -0.3226487803654685 -0.9465147873917438 0.002742585903479332
vn -0.31665476992020014 -0.9485130417765855 0.0072640392698727066
vn -0.31665476992020014 -0.9485130417765855 0.0072640392698727066
vn -0.31665476992020014 -0.9485130417765855 0.0072640392698727066
vn -0.32377665669517547 0.9461295701290338 -0.0027410046961673963
vn -0.32377665669517547 0.9461295701290338 -0.0027410046961673963
vn -0.32377665669517547 0.9461295701290338 -0.0027410046961673963
vn -0.3178363062515799 0.9481177988255246 -0.007260990193777232
vn -0.3178363062515799 0.9481177988255246 -0.007260990193777232
vn -0.3178363062515799 0.9481177988255246 -0.007260990193777232
vn -0.9745307408748446 0.22424737628364874 -0.0017173583860398355
vn -0.9745307408748446 0.22424737628364874 -0.0017173583860398355
vn -0.9745307408748446 0.22424737628364874 -0.0017173583860398355
vn -0.974126391511043 0.22557082465563563 -0.01398486416990316
vn -0.974126391511043 0.22557082465563563 -0.01398486416990316
vn -0.974126391511043 0.22557082465563563 -0.01398486416990316
vn -0.9744995953508919 -0.22438267705673176 0.0017183997794895517
vn -0.9744995953508919 -0.22438267705673176 0.0017183997794895517
vn -0.9744995953508919 -0.22438267705673176 0.0017183997794895517
vn -0.9741087715372005 -0.22564673778684918 0.01398752803175088
vn -0.9741087715372005 -0.22564673778684918 0.01398752803175088
vn -0.9741087715372005 -0.22564673778684918 0.01398752803175088
vn -9.204037865063358e-7 -0.05133338042137179 0.9986815729018272
vn -9.204037865063358e-7 -0.05133338042137179 0.9986815729018272
vn -9.204037865063358e-7 -0.05133338042137179 0.9986815729018272
vn 0 -0.05133367022834575 0.9986815580057977
vn 0 -0.05133367022834575 0.9986815580057977
vn 0 -0.05133367022834575 0.9986815580057977
vn 9.201916099192694e-7 -0.05563169379010325 -0.9984513581768505
vn 9.201916099192694e-7 -0.05563169379010325 -0.9984513581768505
vn 9.201916099192694e-7 -0.05563169379010325 -0.9984513581768505
vn -3.1613385042237404e-7 -0.05563208744877435 -0.9984513362432802
vn -3.1613385042237404e-7 -0.05563208744877435 -0.9984513362432802
vn -3.1613385042237404e-7 -0.05563208744877435 -0.9984513362432802
vn 0 0.05043133200495769 0.998727530787154
vn 0 0.05043133200495769 0.998727530787154
vn 0 0.05043133200495769 0.998727530787154
vn -0.000005388759990274822 0.050433050999425307 0.9987274439694998
vn -0.000005388759990274822 0.050433050999425307 0.9987274439694998
vn -0.000005388759990274822 0.050433050999425307 0.9987274439694998
vn 9.201480185235658e-7 0.05647380253186461 -0.9984040813351802
vn 9.201480185235658e-7 0.05647380253186461 -0.9984040813351802
vn 9.201480185235658e-7 0.05647380253186461 -0.9984040813351802
vn 0 0.05647351288595988 -0.9984040977191144
vn 0 0.05647351288595988 -0.9984040977191144
vn 0 0.05647351288595988 -0.9984040977191144
vn 0.9747709922986733 0.2232007856188111 -0.0017093484739231677
vn 0.9747709922986733 0.2232007856188111 -0.0017093484739231677
vn 0.9747709922986733 0.2232007856188111 -0.0017093484739231677
vn 0.9749678850582112 0.22191976441853278 -0.013756499029246166
vn 0.9749678850582112 0.22191976441853278 -0.013756499029246166
vn 0.9749678850582112 0.22191976441853278 -0.013756499029246166
vn 0.9747400545165961 -0.22333584735034107 0.0017103827900389877
vn 0.9747400545165961 -0.22333584735034107 0.0017103827900389877
vn 0.9747400545165961 -0.22333584735034107 0.0017103827900389877
vn 0.9749509355278866 -0.22199381452059969 0.013762980341927309
vn 0.9749509355278866 -0.22199381452059969 0.013762980341927309
vn 0.9749509355278866 -0.22199381452059969 0.013762980341927309
vn 0.000006023275051238886 0.9980842254300316 -0.0618698546260924
vn 0.000006023275051238886 0.9980842254300316 -0.0618698546260924
vn 0.000006023275051238886 0.9980842254300316 -0.0618698546260924
vn 0 0.9980836673453897 -0.06187885728080049
vn 0 0.9980836673453897 -0.06187885728080049
vn 0 0.9980836673453897 -0.06187885728080049
vn -0.000005671691527202409 -0.9980836999979921 0.06187833034391036
vn -0.000005671691527202409 -0.9980836999979921 0.06187833034391036
vn -0.000005671691527202409 -0.9980836999979921 0.06187833034391036
vn 0 -0.9980842254481369 0.06186985462721472
vn 0 -0.9980842254481369 0.06186985462721472
vn 0 -0.9980842254481369 0.06186985462721472
f 1//1 2//2 3//3
f 4//4 5//5 6//6
f 7//7 8//8 9//9
f 10//10 11//11 12//12
f 13//13 14//14 15//15
f 16//16 17//17 18//18
f 19//19 20//20 21//21
f 22//22 23//23 24//24
f 25//25 26//26 27//27
f 28//28 29//29 30//30
f 31//31 32//32 33//33
f 34//34 35//35 36//36
f 37//37 38//38 39//39
f 40//40 41//41 42//42
f 43//43 44//44 45//45
f 46//46 47//47 48//48
f 49//49 50//50 51//51
f 52//52 53//53 54//54
f 55//55 56//56 57//57
f 58//58 59//59 60//60
f 61//61 62//62 63//63
f 64//64 65//65 66//66
f 67//67 68//68 69//69
f 70//70 71//71 72//72
f 73//73 74//74 75//75
f 76//76 77//77 78//78
f 79//79 80//80 81//81
f 82//82 83//83 84//84
f 85//85 86//86 87//87
f 88//88 89//89 90//90
f 91//91 92//92 93//93
f 94//94 95//95 96//96
f 97//97 98//98 99//99
f 100//100 101//101 102//102
f 103//103 104//104 105//105
f 106//106 107//107 108//108
f 109//109 110//110 111//111
f 112//112 113//113 114//114
f 115//115 116//116 117//117
f 118//118 119//119 120//120
f 121//121 122//122 123//123
f 124//124 125//125 126//126
f 127//127 128//128 129//129
f 130//130 131//131 132//132
f 133//133 134//134 135//135
f 136//136 137//137 138//138
f 139//139 140//140 141//141
f 142//142 143//143 144//144
f 145//145 146//146 147//147
f 148//148 149//149 150//150
f 151//151 152//152 153//153
f 154//154 155//155 156//156
f 157//157 158//158 159//159
f 160//160 161//161 162//162
f 163//163 164//164 165//165
f 166//166 167//167 168//168
f 169//169 170//170 171//171
f 172//172 173//173 174//174
f 175//175 176//176 177//177
f 178//178 179//179 180//180
f 181//181 182//182 183//183
f 184//184 185//185 186//186
f 187//187 188//188 189//189
f 190//190 191//191 192//192
f 193//193 194//194 195//195
f 196//196 197//197 198//198
f 199//199 200//200 201//201
f 202//202 203//203 204//204
f 205//205 206//206 207//207
f 208//208 209//209 210//210
f 211//211 212//212 213//213
f 214//214 215//215 216//216
f 217//217 218//218 219//219
f 220//220 221//221 222//222
f 223//223 224//224 225//225
f 226//226 227//227 228//228
f 229//229 230//230 231//231
f 232//232 233//233 234//234
f 235//235 236//236 237//237
f 238//238 239//239 240//240
f 241//241 242//242 243//243
f 244//244 245//245 246//246
f 247//247 248//248 249//249
f 250//250 251//251 252//252
f 253//253 254//254 255//255
f 256//256 257//257 258//258
f 259//259 260//260 261//261
f 262//262 263//263 264//264
f 265//265 266//266 267//267
f 268//268 269//269 270//270
f 271//271 272//272 273//273
f 274//274 275//275 276//276
f 277//277 278//278 279//279
f 280//280 281//281 282//282
f 283//283 284//284 285//285
f 286//286 287//287 288//288
f 289//289 290//290 291//291
f 292//292 293//293 294//294
f 295//295 296//296 297//297
f 298//298 299//299 300//300
f 301//301 302//302 303//303
f 304//304 305//305 306//306
f 307//307 308//308 309//309
f 310//310 311//311 312//312
f 313//313 314//314 315//315
f 316//316 317//317 318//318
f 319//319 320//320 321//321
f 322//322 323//323 324//324
f 325//325 326//326 327//327
f 328//328 329//329 330//330
f 331//331 332//332 333//333
f 334//334 335//335 336//336
f 337//337 338//338 339//339
f 340//340 341//341 342//342
f 343//343 344//344 345//345
f 346//346 347//347 348//348
f 349//349 350//350 351//351
f 352//352 353//353 354//354
f 355//355 356//356 357//357
f 358//358 359//359 360//360
f 361//361 362//362 363//363
f 364//364 365//365 366//366
f 367//367 368//368 369//369
f 370//370 371//371 372//372
f 373//373 374//374 375//375
f 376//376 377//377 378//378
f 379//379 380//380 381//381
f 382//382 383//383 384//384
f 385//385 386//386 387//387
f 388//388 389//389 390//390
f 391//391 392//392 393//393
f 394//394 395//395 396//396
f 397//397 398//398 399//399
f 400//400 401//401 402//402
f 403//403 404//404 405//405
f 406//406 407//407 408//408
f 409//409 410//410 411//411
f 412//412 413//413 414//414
f 415//415 416//416 417//417
f 418//418 419//419 420//420
f 421//421 422//422 423//423
f 424//424 425//425 426//426
f 427//427 428//428 429//429
f 430//430 431//431 432//432
f 433//433 434//434 435//435
f 436//436 437//437 438//438
f 439//439 440//440 441//441
f 442//442 443//443 444//444
f 445//445 446//446 447//447
f 448//448 449//449 450//450
f 451//451 452//452 453//453
f 454//454 455//455 456//456
